<?xml version="1.0" encoding="utf-8"?>
<!-- Generator: Adobe Illustrator 24.0.0, SVG Export Plug-In . SVG Version: 6.00 Build 0)  -->
<svg version="1.1" id="Layer_1" xmlns="http://www.w3.org/2000/svg" xmlns:xlink="http://www.w3.org/1999/xlink" x="0px" y="0px"
	 viewBox="0 0 2618.72 1380.31" style="enable-background:new 0 0 2618.72 1380.31;" xml:space="preserve">
<style type="text/css">
	.st0{fill:#FFFFFF;}
</style>
<g>
	<path d="M1260.74,611.26h-199.51c-5.52,0-10-4.48-10-10V458.87c0-5.52,4.48-10,10-10h199.51c3.82,0,7.31,2.18,8.99,5.61
		c1.68,3.43,1.25,7.52-1.1,10.54l-50.71,65.05l50.71,65.04c2.35,3.01,2.78,7.1,1.1,10.54
		C1268.05,609.08,1264.56,611.26,1260.74,611.26z"/>
	<path d="M248.69,611.26H49.18c-3.82,0-7.31-2.18-8.99-5.61c-1.68-3.43-1.25-7.52,1.1-10.54l50.71-65.04l-50.71-65.05
		c-2.35-3.01-2.78-7.1-1.1-10.54c1.68-3.43,5.16-5.61,8.99-5.61h199.51c5.52,0,10,4.48,10,10v142.39
		C258.69,606.79,254.21,611.26,248.69,611.26z"/>
	<path class="st0" d="M1240.26,594.76h-169.03c-1.93,0-3.5-1.57-3.5-3.5V468.87c0-1.93,1.57-3.5,3.5-3.5h169.03
		c1.34,0,2.56,0.76,3.14,1.96c0.59,1.2,0.44,2.63-0.38,3.69l-42.92,55.05c-1.83,2.35-1.83,5.64,0,7.99l42.92,55.04
		c0.82,1.05,0.97,2.49,0.38,3.69C1242.82,594,1241.6,594.76,1240.26,594.76z M1074.73,587.76h158.36l-38.51-49.39
		c-3.81-4.89-3.81-11.71,0-16.6l38.51-49.4h-158.36V587.76z"/>
	<path class="st0" d="M238.69,594.76H69.66c-1.34,0-2.56-0.76-3.15-1.96c-0.59-1.2-0.44-2.63,0.38-3.69l42.92-55.04
		c1.83-2.35,1.83-5.64,0-7.99L66.9,471.02c-0.82-1.05-0.97-2.49-0.38-3.69c0.59-1.2,1.81-1.96,3.14-1.96h169.03
		c1.93,0,3.5,1.57,3.5,3.5c0,1.93-1.57,3.5-3.5,3.5H76.82l38.51,49.4c3.81,4.89,3.81,11.71,0,16.6l-38.51,49.39h161.87
		c1.93,0,3.5,1.57,3.5,3.5C242.19,593.2,240.62,594.76,238.69,594.76z"/>
	<path d="M1061.23,611.26c-1.79,0-3.58-0.48-5.16-1.44c-3.03-1.83-4.87-5.11-4.84-8.65l0.22-26.25c0.05-5.49,4.51-9.91,9.99-9.92
		l48.52-0.03h0.01c4.58,0,8.57,3.11,9.7,7.55c1.12,4.44-0.92,9.08-4.95,11.25l-48.74,26.28
		C1064.49,610.86,1062.86,611.26,1061.23,611.26z"/>
	<path d="M248.69,611.26c-1.63,0-3.26-0.4-4.74-1.2l-48.75-26.28c-4.03-2.17-6.07-6.81-4.95-11.25c1.12-4.44,5.12-7.55,9.7-7.55h0
		l48.52,0.03c5.49,0,9.95,4.43,9.99,9.91l0.22,26.25c0.03,3.54-1.81,6.82-4.84,8.65C252.27,610.78,250.48,611.26,248.69,611.26z"/>
	<path d="M1109.99,584.98H199.94c-5.52,0-10-4.48-10-10V419.75c0-5.52,4.48-10,10-10h910.05c5.52,0,10,4.48,10,10v155.23
		C1119.99,580.51,1115.51,584.98,1109.99,584.98z"/>
	<rect x="189.94" y="426.25" class="st0" width="930.02" height="7"/>
	<rect x="189.94" y="561.48" class="st0" width="930.02" height="7"/>
	<path d="M2326.24,977.64c-112.14,0-225.82-15.16-335.76-29.82c-109.29-14.57-222.3-29.64-333.11-29.64
		c-88.84,0-168.08,9.61-242.25,29.39c-4.37,1.16-8.97-0.75-11.24-4.66c-2.26-3.92-1.61-8.86,1.58-12.06
		c30.92-31.01,63.2-61.37,96.1-90.38c-31.96-18.82-63.28-35.45-93.27-49.54c-3.8-1.79-6.08-5.76-5.71-9.94
		c0.37-4.18,3.32-7.69,7.38-8.77c75.87-20.23,156.79-30.06,247.4-30.06c112.14,0,225.82,15.16,335.76,29.82
		c109.29,14.57,222.3,29.64,333.11,29.64c88.85,0,168.09-9.61,242.25-29.39c4.27-1.13,8.79,0.66,11.1,4.43
		c2.31,3.77,1.88,8.61-1.07,11.9c-27.05,30.2-55.18,60.07-83.74,88.9c27.78,19.11,55.09,36.52,81.33,51.82
		c3.49,2.04,5.41,5.97,4.87,9.97c-0.54,4-3.43,7.29-7.33,8.33C2497.78,967.81,2416.85,977.64,2326.24,977.64z"/>
	<path class="st0" d="M2326.24,961.14c-111.04,0-224.17-15.08-333.58-29.67c-109.82-14.64-223.38-29.78-335.29-29.78
		c-76.72,0-145.83,7-211.29,21.39c-1.53,0.34-3.09-0.38-3.84-1.76c-0.74-1.38-0.47-3.08,0.65-4.17
		c25.95-25.12,52.83-49.78,79.88-73.31c1.56-1.36,2.39-3.4,2.21-5.47c-0.18-2.06-1.34-3.93-3.12-5
		c-27.7-16.69-55.21-31.93-81.75-45.28c-1.32-0.66-2.08-2.08-1.9-3.54c0.18-1.46,1.25-2.66,2.69-2.99
		c66.83-15.4,137.63-22.88,216.46-22.88c111.04,0,224.17,15.08,333.58,29.67c109.82,14.64,223.38,29.78,335.29,29.78
		c78.01,0,148.23-7.24,214.65-22.14c1.49-0.34,3.03,0.34,3.8,1.66c0.76,1.33,0.58,3-0.46,4.12c-22.66,24.62-46.07,49.01-69.57,72.51
		c-1.36,1.36-2.05,3.24-1.88,5.16c0.17,1.92,1.17,3.66,2.75,4.76c24.17,16.91,48.21,32.7,71.47,46.92c1.21,0.74,1.85,2.14,1.63,3.54
		c-0.23,1.4-1.27,2.53-2.66,2.85C2478.21,953.41,2406.34,961.14,2326.24,961.14z M1657.37,894.69
		c112.38,0,226.17,15.17,336.22,29.84c109.18,14.56,222.07,29.61,332.65,29.61c76.28,0,145.02-7.05,209.83-21.55
		c-21.1-13.1-42.77-27.43-64.54-42.66c-3.28-2.29-5.36-5.9-5.71-9.88c-0.35-3.99,1.07-7.9,3.91-10.72
		c20.84-20.83,41.6-42.37,61.83-64.15c-63.72,13.41-131.01,19.94-205.31,19.94c-112.38,0-226.17-15.17-336.22-29.85
		c-109.18-14.56-222.07-29.61-332.65-29.61c-74.58,0-141.89,6.74-205.42,20.58c23.99,12.34,48.69,26.15,73.53,41.12
		c3.69,2.22,6.11,6.11,6.48,10.39c0.37,4.29-1.34,8.53-4.59,11.36c-23.91,20.8-47.68,42.48-70.79,64.58
		C1518.98,900.91,1584.81,894.69,1657.37,894.69z"/>
	<path d="M2571.07,248.12H1412.55c-4.32,0-8.15-2.77-9.5-6.88c-1.35-4.11,0.09-8.61,3.57-11.17l95.03-69.96l-95.03-69.96
		c-3.48-2.56-4.92-7.07-3.57-11.17c1.35-4.11,5.18-6.88,9.5-6.88h1158.52c4.19,0,7.94,2.62,9.39,6.55
		c1.45,3.94,0.28,8.36-2.91,11.07l-82.84,70.39l82.84,70.4c3.19,2.71,4.36,7.13,2.91,11.07
		C2579.01,245.5,2575.26,248.12,2571.07,248.12z"/>
	<path class="st0" d="M2543.86,231.62H1443c-1.51,0-2.85-0.97-3.33-2.41c-0.47-1.44,0.03-3.01,1.25-3.91l81.44-59.96
		c1.66-1.22,2.65-3.18,2.65-5.23s-0.99-4.01-2.65-5.24l-81.44-59.96c-1.22-0.9-1.72-2.47-1.25-3.91s1.81-2.41,3.33-2.41h1100.86
		c1.47,0,2.78,0.92,3.29,2.29s0.1,2.92-1.02,3.87l-71.07,60.39c-1.46,1.24-2.29,3.04-2.29,4.95s0.83,3.71,2.29,4.95l71.07,60.4
		c1.12,0.95,1.52,2.5,1.02,3.88C2546.64,230.7,2545.33,231.62,2543.86,231.62z M1453.66,224.62h1080.68l-63.81-54.23
		c-3.02-2.57-4.76-6.32-4.76-10.29s1.73-7.72,4.76-10.29l63.81-54.23H1453.66l72.86,53.64c3.44,2.53,5.5,6.6,5.5,10.87
		s-2.05,8.34-5.5,10.87L1453.66,224.62z"/>
	<path d="M1635.64,641.4c-62.84,0-120.23-3.94-175.42-12.06c-2.45-0.36-4.67-1.61-6.25-3.52c-29.64-35.84-58.91-72.59-87-109.23
		c-3.28-4.28-2.58-10.39,1.59-13.82c27.95-22.92,57-48.17,86.36-75.03c2.22-2.03,5.23-2.95,8.21-2.52
		c54.22,7.97,110.65,11.85,172.52,11.85c118.12,0,238.53-14.57,354.97-28.66c117.03-14.16,238.05-28.81,357.37-28.81
		c66.75,0,127.52,4.46,185.78,13.64c2.61,0.41,4.94,1.83,6.5,3.96c26.01,35.42,51.81,71.63,76.68,107.61
		c2.79,4.03,2.24,9.49-1.29,12.89c-24.77,23.84-50.41,49.63-76.22,76.65c-2.26,2.37-5.55,3.48-8.79,2.97
		c-57.21-9.01-116.96-13.4-182.66-13.4c-118.13,0-238.54,14.57-354.99,28.66C1875.97,626.75,1754.96,641.4,1635.64,641.4z"/>
	<path class="st0" d="M1635.64,624.9L1635.64,624.9c-60.62,0-115.97-3.71-169.21-11.33c-0.86-0.12-1.65-0.56-2.2-1.24
		c-26.58-32.2-52.91-65.22-78.27-98.12c-1.15-1.49-0.91-3.63,0.54-4.83c24.72-20.5,50.32-42.79,76.07-66.27
		c0.77-0.7,1.82-1.02,2.85-0.88c53.6,7.64,109.28,11.35,170.23,11.35c119.11,0,240.02-14.63,356.95-28.78
		c116.55-14.1,237.06-28.69,355.39-28.69c64.37,0,122.96,4.19,179.13,12.8c0.92,0.14,1.74,0.64,2.29,1.39
		c23.4,31.93,46.66,64.54,69.13,96.91c0.98,1.41,0.79,3.32-0.44,4.51c-21.84,21.17-44.38,43.87-66.99,67.46
		c-0.79,0.82-1.93,1.21-3.05,1.04c-56.52-8.61-115.42-12.8-180.07-12.8c-119.12,0-240.03,14.63-356.97,28.78
		C1874.47,610.32,1753.97,624.9,1635.64,624.9z M1468.76,606.83c52.5,7.45,107.1,11.07,166.88,11.07
		c117.91,0,238.2-14.56,354.54-28.64c117.14-14.17,238.27-28.83,357.81-28.83c64.32,0,123.01,4.12,179.33,12.6
		c21.52-22.42,42.96-44.02,63.78-64.26c-21.64-31.12-43.99-62.45-66.47-93.16c-55.38-8.41-113.17-12.5-176.64-12.5
		c-117.91,0-238.21,14.56-354.54,28.63c-117.14,14.17-238.26,28.83-357.8,28.83c-60.67,0-116.16-3.66-169.58-11.19
		c-24.52,22.32-48.9,43.57-72.5,63.21C1417.96,544.21,1443.24,575.89,1468.76,606.83z"/>
	<path d="M2532.2,1322.37H1461.67c-2.76,0-5.39-1.14-7.28-3.15l-86.77-92.16c-3.62-3.85-3.62-9.86,0-13.71l86.77-92.16
		c1.89-2.01,4.52-3.15,7.28-3.15H2532.2c2.97,0,5.79,1.32,7.69,3.61l76.52,92.16c3.07,3.7,3.07,9.07,0,12.78l-76.52,92.16
		C2538,1321.04,2535.18,1322.37,2532.2,1322.37z"/>
	<path class="st0" d="M2527.51,1305.87H1465.99c-0.96,0-1.89-0.4-2.55-1.1l-77.35-82.16c-1.27-1.35-1.27-3.45,0-4.8l77.35-82.16
		c0.66-0.7,1.58-1.1,2.55-1.1h1061.52c1.04,0,2.03,0.46,2.69,1.26l68.21,82.16c1.08,1.3,1.08,3.17,0,4.47l-68.21,82.16
		C2529.54,1305.4,2528.55,1305.87,2527.51,1305.87z M1467.5,1298.87h1058.37l65.31-78.66l-65.31-78.66H1467.5l-74.06,78.66
		L1467.5,1298.87z"/>
	<path d="M1260.74,320.2c-1.26,0-2.53-0.24-3.74-0.73c-63.79-25.71-129.47-47.55-195.23-64.91c-5.08-1.34-8.25-6.38-7.27-11.54
		l26.48-138.94c0.52-2.72,2.15-5.11,4.49-6.59c2.35-1.48,5.2-1.92,7.88-1.21c70.85,18.71,141.6,42.24,210.3,69.92
		c3.55,1.43,5.97,4.77,6.24,8.59s-1.68,7.46-5,9.36c-22.87,13.12-45.69,26.92-67.95,41.1c11.52,26.88,22.65,54.2,33.12,81.34
		c1.43,3.72,0.53,7.93-2.31,10.72C1265.85,319.21,1263.32,320.2,1260.74,320.2z"/>
	<path d="M49.18,320.2c-2.58,0-5.11-1-7.02-2.88c-2.84-2.79-3.75-7.01-2.31-10.72c10.47-27.15,21.6-54.47,33.12-81.34
		c-22.28-14.19-45.1-28-67.95-41.1c-3.32-1.91-5.26-5.54-5-9.36c0.26-3.82,2.69-7.16,6.24-8.59
		c68.71-27.69,139.47-51.22,210.3-69.92c2.68-0.71,5.54-0.27,7.88,1.21c2.35,1.48,3.97,3.86,4.49,6.59l26.48,138.94
		c0.98,5.16-2.19,10.2-7.27,11.54c-65.75,17.36-131.44,39.2-195.23,64.91C51.71,319.97,50.44,320.2,49.18,320.2z"/>
	<path class="st0" d="M66.86,295.97c-0.92,0-1.82-0.36-2.49-1.04c-0.98-0.99-1.28-2.46-0.77-3.76c8.93-22.48,18.3-45.08,27.87-67.17
		c1.27-2.93,0.24-6.32-2.45-8.05c-18.94-12.2-38.45-24.23-57.99-35.74c-1.15-0.68-1.82-1.96-1.71-3.3c0.11-1.34,0.97-2.49,2.22-2.98
		c58.6-22.83,118.77-42.65,178.83-58.92c0.94-0.25,1.94-0.11,2.77,0.41c0.83,0.52,1.4,1.35,1.58,2.31l22.72,119.24
		c0.34,1.8-0.76,3.56-2.52,4.03c-56,15.13-112.12,33.54-166.82,54.71C67.72,295.89,67.29,295.97,66.86,295.97z M40.81,177.86
		c17.53,10.44,35,21.25,52.01,32.21c5.58,3.59,7.72,10.62,5.08,16.72c-8.48,19.59-16.82,39.58-24.82,59.54
		c51.53-19.67,104.26-36.88,156.9-51.22l-21.41-112.34C152.26,138.15,95.87,156.67,40.81,177.86z"/>
	<path class="st0" d="M1243.06,295.97c-0.42,0-0.85-0.08-1.26-0.24c-54.69-21.17-110.82-39.58-166.82-54.71
		c-1.77-0.48-2.87-2.24-2.53-4.03l22.72-119.24c0.18-0.96,0.76-1.79,1.58-2.31c0.83-0.52,1.83-0.67,2.77-0.41
		c60.07,16.27,120.24,36.09,178.83,58.92c1.25,0.49,2.11,1.64,2.22,2.98c0.11,1.34-0.56,2.62-1.71,3.3
		c-19.54,11.53-39.05,23.55-57.98,35.75c-2.69,1.73-3.72,5.12-2.45,8.05c9.57,22.1,18.95,44.7,27.87,67.17
		c0.51,1.29,0.21,2.77-0.77,3.76C1244.87,295.61,1243.97,295.97,1243.06,295.97z M1079.94,235.11
		c52.65,14.34,105.37,31.55,156.9,51.22c-8-19.94-16.33-39.94-24.82-59.54c-2.64-6.09-0.5-13.12,5.08-16.72
		c17-10.95,34.47-21.77,52.01-32.21c-55.05-21.19-111.44-39.7-167.76-55.09L1079.94,235.11z"/>
	<path d="M1064.33,254.9c-2.56,0-5.05-0.98-6.93-2.79c-2.46-2.37-3.54-5.82-2.87-9.17l5.1-25.55c0.54-2.7,2.17-5.07,4.51-6.53
		c2.34-1.46,5.18-1.89,7.84-1.19c16.28,4.29,32.78,8.91,49.05,13.74c4.4,1.31,7.35,5.44,7.15,10.03c-0.21,4.59-3.51,8.45-8.01,9.36
		c-17.88,3.61-35.88,7.58-53.5,11.82C1065.89,254.81,1065.11,254.9,1064.33,254.9z"/>
	<path d="M245.6,254.9c-0.78,0-1.56-0.09-2.34-0.28c-17.62-4.24-35.62-8.21-53.5-11.82c-4.5-0.91-7.81-4.77-8.01-9.36
		c-0.2-4.59,2.74-8.73,7.15-10.03c16.26-4.82,32.76-9.44,49.05-13.74c2.67-0.7,5.5-0.27,7.84,1.19c2.34,1.46,3.97,3.82,4.51,6.52
		l5.11,25.56c0.67,3.35-0.42,6.8-2.87,9.17C250.64,253.92,248.15,254.9,245.6,254.9z"/>
	<path d="M1118.2,243c-0.96,0-1.91-0.14-2.85-0.41c-150.38-44.69-305.28-67.35-460.4-67.35c-155.11,0-310,22.66-460.38,67.35
		c-2.67,0.79-5.55,0.44-7.95-0.98c-2.4-1.42-4.09-3.78-4.68-6.5L149.68,84.58c-1.09-5.11,1.92-10.19,6.93-11.68
		C319.38,24.53,487.05,0,654.96,0c167.92,0,335.6,24.53,498.37,72.9c5.01,1.49,8.02,6.58,6.93,11.68
		c-10.76,50.17-21.52,100.34-32.28,150.51c-0.58,2.72-2.28,5.08-4.68,6.5C1121.74,242.53,1119.98,243,1118.2,243z"/>
	<path class="st0" d="M153.65,101.91l-1.96-6.72C325.78,44.45,504.51,16.5,654.96,16.5c156.91,0,340.64,27.32,504.08,74.97
		l-1.96,6.72C994.25,50.72,811.24,23.5,654.96,23.5C505.16,23.5,327.12,51.35,153.65,101.91z"/>
	<path class="st0" d="M1128.9,229.63c-155.27-45.05-328.02-70.89-473.94-70.89c-145.9,0-318.64,25.84-473.92,70.89l-1.95-6.72
		c155.89-45.23,329.34-71.17,475.87-71.17c146.55,0,320.01,25.94,475.89,71.17L1128.9,229.63z"/>
	<path d="M1090.8,1284.35c-1.87,0-3.72-0.52-5.33-1.54c-2.35-1.48-3.97-3.87-4.49-6.59l-26.48-138.94
		c-0.98-5.16,2.19-10.2,7.27-11.54c65.71-17.35,131.4-39.19,195.23-64.91c3.69-1.49,7.92-0.64,10.76,2.15
		c2.84,2.79,3.75,7.01,2.31,10.72c-10.46,27.12-21.59,54.44-33.12,81.34c22.31,14.21,45.13,28.01,67.95,41.1
		c3.32,1.91,5.27,5.54,5,9.36s-2.69,7.16-6.24,8.59c-68.73,27.7-139.48,51.22-210.3,69.92
		C1092.52,1284.24,1091.66,1284.35,1090.8,1284.35z"/>
	<path class="st0" d="M1098.61,1265.41c-0.65,0-1.29-0.18-1.86-0.53c-0.83-0.52-1.4-1.36-1.58-2.31l-22.72-119.24
		c-0.34-1.8,0.76-3.56,2.53-4.03c55.98-15.13,112.11-33.54,166.82-54.71c1.3-0.5,2.77-0.19,3.75,0.8c0.98,0.99,1.28,2.46,0.77,3.76
		c-8.92,22.45-18.29,45.05-27.87,67.17c-1.27,2.93-0.24,6.32,2.45,8.05c18.98,12.22,38.49,24.24,57.99,35.74
		c1.15,0.68,1.82,1.96,1.71,3.3s-0.97,2.49-2.22,2.98c-58.62,22.83-118.79,42.66-178.83,58.92
		C1099.23,1265.37,1098.92,1265.41,1098.61,1265.41z M1079.93,1145.2l21.41,112.34c56.31-15.38,112.69-33.9,167.76-55.09
		c-17.51-10.42-34.97-21.24-52.01-32.21c-5.58-3.59-7.72-10.62-5.08-16.72c8.49-19.62,16.83-39.61,24.82-59.54
		C1185.29,1113.65,1132.56,1130.87,1079.93,1145.2z"/>
	<path d="M219.11,1284.35c-0.85,0-1.71-0.11-2.55-0.33c-70.85-18.71-141.61-42.24-210.3-69.92c-3.55-1.43-5.97-4.77-6.24-8.59
		c-0.26-3.82,1.68-7.46,5-9.36c22.86-13.12,45.68-26.92,67.95-41.1c-11.53-26.88-22.65-54.21-33.12-81.34
		c-1.43-3.72-0.53-7.93,2.31-10.72c2.84-2.79,7.06-3.64,10.76-2.15c63.8,25.71,129.48,47.55,195.22,64.91
		c5.08,1.34,8.25,6.38,7.27,11.54l-26.48,138.94c-0.52,2.72-2.15,5.11-4.49,6.59C222.83,1283.83,220.98,1284.35,219.11,1284.35z"/>
	<path class="st0" d="M211.3,1265.41c-0.31,0-0.61-0.04-0.91-0.12c-60.07-16.27-120.24-36.09-178.83-58.92
		c-1.25-0.49-2.11-1.64-2.22-2.98c-0.11-1.34,0.56-2.62,1.71-3.3c19.55-11.53,39.06-23.56,57.99-35.74
		c2.69-1.73,3.72-5.11,2.45-8.05c-9.56-22.09-18.94-44.69-27.87-67.17c-0.51-1.29-0.21-2.77,0.77-3.76c0.98-0.99,2.45-1.3,3.75-0.8
		c54.7,21.18,110.82,39.59,166.81,54.72c1.77,0.48,2.87,2.24,2.52,4.03l-22.72,119.24c-0.18,0.96-0.76,1.79-1.58,2.31
		C212.6,1265.23,211.95,1265.41,211.3,1265.41z M40.81,1202.44c55.05,21.18,111.44,39.7,167.76,55.09l21.41-112.34
		c-52.64-14.34-105.37-31.55-156.9-51.22c8,19.96,16.34,39.95,24.82,59.54c2.64,6.09,0.5,13.12-5.08,16.71
		C75.82,1181.18,58.36,1192,40.81,1202.44z"/>
	<path d="M240.48,1170.96c-0.85,0-1.71-0.11-2.55-0.33c-16.3-4.3-32.8-8.92-49.05-13.74c-4.4-1.31-7.35-5.44-7.15-10.03
		c0.21-4.59,3.51-8.45,8.01-9.36c17.89-3.61,35.89-7.59,53.5-11.82c3.32-0.79,6.81,0.15,9.27,2.52c2.46,2.36,3.54,5.82,2.87,9.17
		l-5.11,25.56c-0.54,2.7-2.17,5.06-4.51,6.52C244.18,1170.45,242.34,1170.96,240.48,1170.96z"/>
	<path d="M1069.43,1170.96c-1.86,0-3.69-0.52-5.29-1.51c-2.34-1.46-3.97-3.82-4.51-6.52l-0.12-0.61
		c-1.66-8.32-3.33-16.63-4.99-24.95c-0.67-3.35,0.42-6.8,2.88-9.17c2.46-2.37,5.95-3.31,9.27-2.51c17.58,4.23,35.58,8.2,53.5,11.82
		c4.5,0.91,7.81,4.77,8.01,9.36c0.21,4.59-2.74,8.73-7.15,10.03c-16.11,4.78-32.61,9.4-49.05,13.74
		C1071.15,1170.85,1070.29,1170.96,1069.43,1170.96z"/>
	<path d="M654.96,1380.31c-167.92,0-335.6-24.53-498.37-72.91c-5.01-1.49-8.02-6.58-6.93-11.68l32.28-150.51
		c0.58-2.72,2.28-5.08,4.68-6.5c2.4-1.42,5.28-1.78,7.95-0.98c150.38,44.69,305.28,67.35,460.39,67.35
		c155.11,0,310.01-22.66,460.38-67.35c2.67-0.8,5.55-0.44,7.95,0.98s4.09,3.78,4.68,6.5l32.28,150.51
		c1.1,5.11-1.92,10.19-6.93,11.68C990.55,1355.78,822.88,1380.31,654.96,1380.31z"/>
	<path class="st0" d="M654.96,1228.57c-150.76,0-324.35-25.28-476.28-69.36l1.95-6.72c151.32,43.9,324.2,69.08,474.33,69.08
		c150.11,0,322.99-25.18,474.31-69.08l1.95,6.72C979.29,1203.29,805.7,1228.57,654.96,1228.57z"/>
	<path class="st0" d="M654.96,1363.81c-157.37,0-341.12-27.25-504.13-74.77l1.96-6.72c162.4,47.34,345.43,74.49,502.17,74.49
		c156.71,0,339.73-27.15,502.14-74.49l1.96,6.72C996.05,1336.55,812.31,1363.81,654.96,1363.81z"/>
	<path d="M41.53,958.03c-2.75-3.27-3.12-7.92-0.93-11.58c16.78-28.01,34.03-55.98,51.32-83.23c-16.68-16.47-33.27-32.11-49.42-46.58
		c-2.59-2.32-3.79-5.82-3.16-9.25c0.63-3.42,2.99-6.27,6.23-7.53c63.66-24.61,129.88-38.95,202.44-43.85
		c2.76-0.19,5.48,0.78,7.5,2.67c2.02,1.89,3.17,4.54,3.17,7.31v142.39c0,5.26-4.08,9.62-9.33,9.98
		c-70.52,4.76-134.82,18.68-196.58,42.55c-1.17,0.45-2.39,0.67-3.6,0.67C46.29,961.59,43.47,960.33,41.53,958.03z"/>
	<path class="st0" d="M72.36,936.06c-1.04,0-2.06-0.47-2.73-1.31c-0.92-1.15-1.02-2.75-0.25-4.01
		c13.42-22.02,27.14-44.04,40.8-65.45c1.63-2.55,1.25-5.96-0.89-8.1c-14.6-14.56-29.26-28.62-43.58-41.78
		c-0.9-0.83-1.31-2.07-1.06-3.27c0.24-1.2,1.1-2.19,2.25-2.6c54.33-19.43,110.44-31.29,171.51-36.27c0.97-0.08,1.94,0.25,2.66,0.92
		c0.72,0.66,1.13,1.6,1.13,2.57v122.33c0,1.83-1.4,3.34-3.22,3.49c-58.82,4.67-112.95,15.56-165.49,33.3
		C73.11,936,72.73,936.06,72.36,936.06z M74.71,814.21c13.02,12.07,26.29,24.85,39.51,38.03c4.45,4.44,5.23,11.51,1.85,16.82
		c-11.95,18.73-23.95,37.94-35.75,57.2c49.29-15.86,100.09-25.82,154.88-30.39v-115.3C178.24,785.49,125.64,796.52,74.71,814.21z"/>
	<path d="M1054.4,1002.09c-2.02-1.89-3.17-4.54-3.17-7.31V852.4c0-5.26,4.08-9.62,9.33-9.98c70.51-4.76,134.82-18.68,196.58-42.55
		c3.98-1.54,8.5-0.38,11.25,2.89c2.75,3.27,3.12,7.92,0.93,11.58c-16.76,27.97-34,55.93-51.32,83.23
		c16.67,16.46,33.27,32.11,49.42,46.58c2.59,2.32,3.79,5.82,3.16,9.25c-0.63,3.42-2.99,6.27-6.23,7.53
		c-63.68,24.61-129.89,38.95-202.44,43.85c-0.22,0.02-0.45,0.02-0.67,0.02C1058.7,1004.79,1056.26,1003.83,1054.4,1002.09z"/>
	<path class="st0" d="M1071.23,987.51c-0.88,0-1.72-0.33-2.37-0.93c-0.72-0.66-1.13-1.6-1.13-2.57V861.69c0-1.83,1.4-3.34,3.22-3.49
		c58.81-4.67,112.95-15.56,165.49-33.3c1.4-0.47,2.93-0.02,3.85,1.13c0.92,1.15,1.02,2.75,0.26,4.01
		c-13.4,21.99-27.12,44.01-40.8,65.46c-1.63,2.55-1.25,5.96,0.89,8.1c14.59,14.56,29.25,28.61,43.58,41.78
		c0.9,0.83,1.3,2.07,1.06,3.27c-0.24,1.2-1.1,2.19-2.25,2.6c-54.35,19.43-110.45,31.29-171.51,36.26
		C1071.42,987.51,1071.33,987.51,1071.23,987.51z M1074.73,864.92v115.29c56.94-4.92,109.54-15.94,160.48-33.63
		c-13.03-12.08-26.3-24.85-39.51-38.03c-4.45-4.44-5.23-11.52-1.85-16.82c11.96-18.76,23.97-37.96,35.76-57.2
		C1180.32,850.38,1129.51,860.35,1074.73,864.92z"/>
	<path d="M248.69,918.38c-1.45,0-2.91-0.32-4.27-0.96c-16.3-7.69-32.53-14.81-48.24-21.18c-4.21-1.71-6.74-6.03-6.16-10.53
		c0.57-4.5,4.1-8.05,8.6-8.65c16.01-2.13,32.55-3.78,49.17-4.9c2.75-0.18,5.45,0.77,7.47,2.64c2.02,1.87,3.18,4.49,3.2,7.25
		l0.23,26.24c0.03,3.44-1.71,6.65-4.61,8.51C252.45,917.85,250.57,918.38,248.69,918.38z"/>
	<path d="M1061.23,1004.79c-1.7,0-3.41-0.43-4.94-1.31c-3.15-1.79-5.09-5.15-5.06-8.78l0.22-26.26c0.04-5.22,4.1-9.53,9.32-9.89
		c16.14-1.1,32.25-2.73,47.88-4.82c4.61-0.62,9.03,2.02,10.68,6.36c1.65,4.34,0.09,9.25-3.77,11.84
		c-16,10.76-32.53,21.33-49.14,31.41C1064.83,1004.3,1063.03,1004.79,1061.23,1004.79z"/>
	<path d="M1004.71,980.37c-117.53-0.01-236.54-23-351.62-45.24c-114.18-22.07-232.24-44.88-347.87-44.88
		c-36.01,0-70.99,2.24-103.96,6.65c-2.86,0.38-5.74-0.49-7.91-2.39s-3.42-4.64-3.42-7.53V731.75c0-5.01,3.71-9.25,8.67-9.91
		c34.32-4.59,69.2-6.83,106.61-6.83c117.54,0,236.55,23,351.64,45.24c114.17,22.06,232.23,44.88,347.85,44.88
		c36.01,0,70.98-2.24,103.95-6.65c2.86-0.38,5.74,0.49,7.91,2.38c2.17,1.9,3.41,4.64,3.41,7.53v155.24c0,5.01-3.71,9.25-8.67,9.91
		c-34.32,4.59-69.17,6.83-106.54,6.83H1004.71z"/>
	<path class="st0" d="M1004.76,963.87c-115.99-0.01-234.21-22.85-348.53-44.94c-114.96-22.22-233.81-45.19-351.02-45.19
		c-31.17,0-82.7,3.08-114.87,6.87l-0.82-6.95c32.4-3.81,84.3-6.92,115.69-6.92c117.88,0,237.06,23.03,352.32,45.31
		c114.02,22.03,231.9,44.81,347.17,44.82c31.37,0,79.88-4.54,114.84-8.79l0.85,6.95C1085.24,959.3,1036.39,963.87,1004.76,963.87z"
		/>
	<path class="st0" d="M1004.71,828.64c-117.86,0-237.04-23.03-352.29-45.3c-114.03-22.04-231.92-44.82-347.2-44.82
		c-27.48,0-68.03,5.17-97.64,8.94c-6.21,0.79-12.01,1.53-17.22,2.16l-0.84-6.95c5.2-0.63,10.98-1.37,17.18-2.16
		c29.8-3.79,70.6-8.99,98.53-8.99c115.95,0,234.17,22.85,348.5,44.94c114.96,22.21,233.79,45.18,350.99,45.18
		c32.23,0,83.75-2.98,114.86-6.64l0.82,6.95C1089.05,825.63,1037.16,828.64,1004.71,828.64z"/>
</g>
</svg>
