<?xml version="1.0" encoding="UTF-8" standalone="no" ?>
<!DOCTYPE svg PUBLIC "-//W3C//DTD SVG 1.1//EN" "http://www.w3.org/Graphics/SVG/1.1/DTD/svg11.dtd">
<svg xmlns="http://www.w3.org/2000/svg" xmlns:xlink="http://www.w3.org/1999/xlink" version="1.1" width="500" height="130" viewBox="0 0 500 130" xml:space="preserve">
<desc>Created with Fabric.js 5.3.0</desc>
<defs>
</defs>
<g transform="matrix(0.3703532987 0 0 0.3703532987 437.4089209739 72.2441105226)" id="NIP3Py2UjL1Fzb0N0cqxQ"  >
<path style="stroke: none; stroke-width: 1; stroke-dasharray: none; stroke-linecap: butt; stroke-dashoffset: 0; stroke-linejoin: miter; stroke-miterlimit: 4; fill: rgb(92,70,54); fill-rule: nonzero; opacity: 1;" vector-effect="non-scaling-stroke"  transform=" translate(0, 0)" d="M 99.75223 81.195 L -99.75777 81.195 C -105.27776999999999 81.195 -109.75777 76.71499999999999 -109.75777 71.195 L -109.75777 -71.195 C -109.75777 -76.71499999999999 -105.27776999999999 -81.195 -99.75777 -81.195 L 99.75223 -81.195 C 103.57222999999999 -81.195 107.06223 -79.01499999999999 108.74222999999999 -75.585 C 110.42223 -72.15499999999999 109.99222999999999 -68.065 107.64223 -65.04499999999999 L 56.93223 0.005000000000009663 L 107.64223 65.04500000000002 C 109.99222999999999 68.05500000000002 110.42223 72.14500000000001 108.74222999999999 75.58500000000001 C 107.06222999999999 79.01500000000001 103.57222999999999 81.19500000000001 99.75223 81.19500000000001 z" stroke-linecap="round" />
</g>
<g transform="matrix(0.3703532987 0 0 0.3703532987 62.5909452122 72.2441105226)" id="HBW7OPWc3cIK6XZr_fd0X"  >
<path style="stroke: none; stroke-width: 1; stroke-dasharray: none; stroke-linecap: butt; stroke-dashoffset: 0; stroke-linejoin: miter; stroke-miterlimit: 4; fill: rgb(92,70,54); fill-rule: nonzero; opacity: 1;" vector-effect="non-scaling-stroke"  transform=" translate(-148.9322274768, -530.065)" d="M 248.69 611.26 L 49.18 611.26 C 45.36 611.26 41.87 609.08 40.19 605.65 C 38.51 602.22 38.94 598.13 41.29 595.11 L 92 530.07 L 41.29 465.02000000000004 C 38.94 462.01000000000005 38.51 457.92 40.19 454.48 C 41.87 451.05 45.349999999999994 448.87 49.18 448.87 L 248.69 448.87 C 254.21 448.87 258.69 453.35 258.69 458.87 L 258.69 601.26 C 258.69 606.79 254.21 611.26 248.69 611.26 z" stroke-linecap="round" />
</g>
<g transform="matrix(0.3703532987 0 0 0.3703532987 435.4668895223 72.2441105226)" id="j0hTEUPNVtJiEWimKU5q4"  >
<path style="stroke: none; stroke-width: 1; stroke-dasharray: none; stroke-linecap: butt; stroke-dashoffset: 0; stroke-linejoin: miter; stroke-miterlimit: 4; fill: rgb(245,226,183); fill-rule: nonzero; opacity: 1;" vector-effect="non-scaling-stroke"  transform=" translate(-1155.7436845881, -530.065)" d="M 1240.26 594.76 L 1071.23 594.76 C 1069.3 594.76 1067.73 593.1899999999999 1067.73 591.26 L 1067.73 468.87 C 1067.73 466.94 1069.3 465.37 1071.23 465.37 L 1240.26 465.37 C 1241.6 465.37 1242.82 466.13 1243.4 467.33 C 1243.99 468.53 1243.8400000000001 469.96 1243.02 471.02 L 1200.1 526.0699999999999 C 1198.27 528.42 1198.27 531.7099999999999 1200.1 534.06 L 1243.02 589.0999999999999 C 1243.84 590.1499999999999 1243.99 591.5899999999999 1243.4 592.79 C 1242.82 594 1241.6 594.76 1240.26 594.76 z M 1074.73 587.76 L 1233.0900000000001 587.76 L 1194.5800000000002 538.37 C 1190.7700000000002 533.48 1190.7700000000002 526.66 1194.5800000000002 521.77 L 1233.0900000000001 472.37 L 1074.73 472.37 L 1074.73 587.76 z" stroke-linecap="round" />
</g>
<g transform="matrix(0.3703532987 0 0 0.3703532987 64.5312587112 72.2441105226)" id="gomIm4fTNSD-AJ0ZyWDg6"  >
<path style="stroke: none; stroke-width: 1; stroke-dasharray: none; stroke-linecap: butt; stroke-dashoffset: 0; stroke-linejoin: miter; stroke-miterlimit: 4; fill: rgb(245,226,183); fill-rule: nonzero; opacity: 1;" vector-effect="non-scaling-stroke"  transform=" translate(-154.1713154119, -530.065)" d="M 238.69 594.76 L 69.66 594.76 C 68.32 594.76 67.1 594 66.50999999999999 592.8 C 65.91999999999999 591.5999999999999 66.07 590.17 66.88999999999999 589.1099999999999 L 109.80999999999999 534.0699999999999 C 111.63999999999999 531.7199999999999 111.63999999999999 528.43 109.80999999999999 526.0799999999999 L 66.9 471.02 C 66.08000000000001 469.96999999999997 65.93 468.53 66.52000000000001 467.33 C 67.11000000000001 466.13 68.33000000000001 465.37 69.66000000000001 465.37 L 238.69 465.37 C 240.62 465.37 242.19 466.94 242.19 468.87 C 242.19 470.8 240.62 472.37 238.69 472.37 L 76.82 472.37 L 115.32999999999998 521.77 C 119.13999999999999 526.66 119.13999999999999 533.48 115.32999999999998 538.37 L 76.82 587.76 L 238.69 587.76 C 240.62 587.76 242.19 589.33 242.19 591.26 C 242.19 593.2 240.62 594.76 238.69 594.76 z" stroke-linecap="round" />
</g>
<g transform="matrix(0.3703532987 0 0 0.3703532987 409.4897250803 93.7431195121)" id="SRaHak4hmCT-4Qh6_ZW6Q"  >
<path style="stroke: none; stroke-width: 1; stroke-dasharray: none; stroke-linecap: butt; stroke-dashoffset: 0; stroke-linejoin: miter; stroke-miterlimit: 4; fill: rgb(0,0,0); fill-rule: nonzero; opacity: 1;" vector-effect="non-scaling-stroke"  transform=" translate(-1085.602107523, -588.115)" d="M 1061.23 611.26 C 1059.44 611.26 1057.65 610.78 1056.07 609.8199999999999 C 1053.04 607.9899999999999 1051.2 604.7099999999999 1051.23 601.17 L 1051.45 574.92 C 1051.5 569.43 1055.96 565.01 1061.44 565 L 1109.96 564.97 L 1109.97 564.97 C 1114.55 564.97 1118.54 568.08 1119.67 572.52 C 1120.79 576.96 1118.75 581.6 1114.72 583.77 L 1065.98 610.05 C 1064.49 610.86 1062.86 611.26 1061.23 611.26 z" stroke-linecap="round" />
</g>
<g transform="matrix(0.3703532987 0 0 0.3703532987 90.5084231532 93.7449712786)" id="0nRLCDCaxYjJhcQKToWFo"  >
<path style="stroke: none; stroke-width: 1; stroke-dasharray: none; stroke-linecap: butt; stroke-dashoffset: 0; stroke-linejoin: miter; stroke-miterlimit: 4; fill: rgb(0,0,0); fill-rule: nonzero; opacity: 1;" vector-effect="non-scaling-stroke"  transform=" translate(-224.312892477, -588.12)" d="M 248.69 611.26 C 247.06 611.26 245.43 610.86 243.95 610.06 L 195.2 583.78 C 191.17 581.61 189.13 576.97 190.25 572.53 C 191.37 568.0899999999999 195.37 564.98 199.95 564.98 L 199.95 564.98 L 248.47 565.01 C 253.96 565.01 258.42 569.4399999999999 258.46 574.92 L 258.68 601.17 C 258.71 604.7099999999999 256.87 607.99 253.84 609.8199999999999 C 252.27 610.78 250.48 611.26 248.69 611.26 z" stroke-linecap="round" />
</g>
<g transform="matrix(0.3703532987 0 0 0.3703532987 250.0018517665 60.1335576551)" id="4k47B1NpLoorvDDdyL2KX"  >
<path style="stroke: none; stroke-width: 1; stroke-dasharray: none; stroke-linecap: butt; stroke-dashoffset: 0; stroke-linejoin: miter; stroke-miterlimit: 4; fill: rgb(92,70,54); fill-rule: nonzero; opacity: 1;" vector-effect="non-scaling-stroke"  transform=" translate(-654.965, -497.365)" d="M 1109.99 584.98 L 199.94 584.98 C 194.42 584.98 189.94 580.5 189.94 574.98 L 189.94 419.75 C 189.94 414.23 194.42 409.75 199.94 409.75 L 1109.99 409.75 C 1115.51 409.75 1119.99 414.23 1119.99 419.75 L 1119.99 574.98 C 1119.99 580.51 1115.51 584.98 1109.99 584.98 z" stroke-linecap="round" />
</g>
<g transform="matrix(0.3703532987 0 0 0.3703532987 249.996296467 35.0921193635)" id="jAfj0foq6YkfSQaTWFk84"  >
<path style="stroke: none; stroke-width: 1; stroke-dasharray: none; stroke-linecap: butt; stroke-dashoffset: 0; stroke-linejoin: miter; stroke-miterlimit: 4; fill: rgb(245,226,183); fill-rule: nonzero; opacity: 1;" vector-effect="non-scaling-stroke"  transform=" translate(-465.01, -3.5)" d="M 0 7 L 0 0 L 930.02 0 L 930.02 7 z" stroke-linecap="round" />
</g>
<g transform="matrix(0.3703532987 0 0 0.3703532987 249.996296467 85.1749959467)" id="sPI57y5kR0V67KCRkqhnf"  >
<path style="stroke: none; stroke-width: 1; stroke-dasharray: none; stroke-linecap: butt; stroke-dashoffset: 0; stroke-linejoin: miter; stroke-miterlimit: 4; fill: rgb(245,226,183); fill-rule: nonzero; opacity: 1;" vector-effect="non-scaling-stroke"  transform=" translate(-465.01, -3.5)" d="M 0 7 L 0 0 L 930.02 0 L 930.02 7 z" stroke-linecap="round" />
</g>
<g transform="matrix(1 0 0 1 248.996296467 57.1335576551)" style="" id="iwjAiWAPS3y6xUkL12KlT">
		<text xml:space="preserve" font-family="Oleo Script Swash Caps" font-size="35" font-style="normal" font-weight="700" line-height="1" style="stroke: none; stroke-width: 1; stroke-dasharray: none; stroke-linecap: butt; stroke-dashoffset: 0; stroke-linejoin: miter; stroke-miterlimit: 4; fill: rgb(245,226,183); fill-rule: nonzero; opacity: 1; white-space: pre;"><tspan x="-85.6275012016" y="14.3532333333">Coffee Time</tspan></text>
</g></svg>
