<?xml version="1.0" encoding="utf-8"?>
<!-- Generator: Adobe Illustrator 16.0.0, SVG Export Plug-In . SVG Version: 6.00 Build 0)  -->
<!DOCTYPE svg PUBLIC "-//W3C//DTD SVG 1.1//EN" "http://www.w3.org/Graphics/SVG/1.1/DTD/svg11.dtd">
<svg version="1.1" id="Layer_1" xmlns="http://www.w3.org/2000/svg" xmlns:xlink="http://www.w3.org/1999/xlink" x="0px" y="0px"
	 width="720px" height="281.8115234px" viewBox="0 0 720 281.8115234" style="enable-background:new 0 0 720 281.8115234;"
	 xml:space="preserve">
<style type="text/css">
<![CDATA[
	.st0{fill:#231F20;}
]]>
</style>
<path class="st0" d="M720,160.2211914c-3.2480469-1.5136719-6.5048828-3.0014648-9.7646484-4.4755859
	c-1.0791016-0.4848633-2.1640625-0.9580078-3.2441406-1.4394531c-2.1816406-0.9765625-4.3632813-1.9511719-6.5488281-2.9052734
	c-1.2910156-0.5634766-2.5820313-1.112793-3.8740234-1.6704102c-1.9853516-0.855957-3.9658203-1.7124023-5.9511719-2.5522461
	c-1.3789063-0.5854492-2.7626953-1.1533203-4.1464844-1.7304688c-1.8984375-0.7919922-3.7978516-1.5839844-5.6962891-2.3642578
	c-1.4394531-0.5854492-2.8808594-1.1606445-4.3164063-1.7402344c-1.8535156-0.7480469-3.7041016-1.4897461-5.5585938-2.2236328
	c-1.4775391-0.5854492-2.9550781-1.1547852-4.4355469-1.7324219c-1.8164063-0.7036133-3.6289063-1.409668-5.4472656-2.1035156
	c-1.5205078-0.5791016-3.0419922-1.1464844-4.5615234-1.7182617c-1.7724609-0.6655273-3.5478516-1.3251953-5.3222656-1.9790039
	c-1.5654297-0.5751953-3.1318359-1.1425781-4.6992188-1.7084961c-1.7373047-0.6254883-3.4707031-1.2509766-5.2099609-1.8666992
	c-0.7392578-0.2607422-1.4794922-0.53125-2.2167969-0.7919922c3.5449219-15.3427734,7.09375-30.6875,10.640625-46.0307617
	c-189.3066406-66.4365234-389.9873047-66.4365234-579.2958984,0c3.5478516,15.3432617,7.0966797,30.6879883,10.6435547,46.0307617
	c-0.7304688,0.2568359-1.4589844,0.5253906-2.1894531,0.7841797c-1.7597656,0.621582-3.5166016,1.2529297-5.2734375,1.8867188
	c-1.5488281,0.5595703-3.0957031,1.1191406-4.6425781,1.6884766c-1.7929688,0.659668-3.5849609,1.3271484-5.375,1.9990234
	c-1.5058594,0.5654297-3.0117188,1.1269531-4.5146484,1.7021484c-1.8320313,0.6977539-3.6611328,1.409668-5.4892578,2.1196289
	c-1.4677734,0.5712891-2.9355469,1.1367188-4.4023438,1.7163086c-1.8632813,0.737793-3.7246094,1.4858398-5.5859375,2.2353516
	c-1.4296875,0.5776367-2.8603516,1.1489258-4.2871094,1.7304688c-1.9179688,0.7861328-3.8320313,1.5839844-5.7451172,2.3823242
	c-1.3662109,0.5693359-2.7333984,1.1328125-4.0957031,1.7104492c-2.0078125,0.8476563-4.0107422,1.7119141-6.0126953,2.5761719
	c-1.2724609,0.5517578-2.5449219,1.0908203-3.8183594,1.6484375c-2.203125,0.9624023-4.4023438,1.9428711-6.5986328,2.925293
	c-1.0654297,0.4750977-2.1337891,0.9423828-3.1972656,1.4213867C6.5068359,157.2172852,3.2509766,158.7075195,0,160.2211914
	c15.2890625,9.9370117,30.2177734,20.2954102,44.7783203,31.0507813
	c-6.1630859,19.6879883-11.8632813,39.4262695-17.1015625,59.1782227
	c46.6074219-21.6928711,94.2636719-38.6699219,142.5136719-50.9213867
	c-2.65625-15.8642578-5.3105469-31.7304688-7.9648438-47.5966797c130.4628906-33.1279297,265.0849609-33.1279297,395.5488281,0
	c-2.6552734,15.8662109-5.3095703,31.7324219-7.9648438,47.5966797
	c48.2490234,12.2514648,95.90625,29.2285156,142.5136719,50.9213867
	c-5.2382813-19.7519531-10.9394531-39.4902344-17.1025391-59.1782227
	C689.7832031,180.5166016,704.7128906,170.1582031,720,160.2211914"/>
</svg>
