  0
SECTION
  2
HEADER
  9
$ACADVER
  1
AC1018
  9
$ACADMAINTVER
 70
     0
  9
$DWGCODEPAGE
  3
ANSI_1252
  9
$INSBASE
 10
0.0
 20
0.0
 30
0.0
  9
$EXTMIN
 10
1.000000000000000E+20
 20
1.000000000000000E+20
 30
1.000000000000000E+20
  9
$EXTMAX
 10
-1.000000000000000E+20
 20
-1.000000000000000E+20
 30
-1.000000000000000E+20
  9
$LIMMIN
 10
0.0
 20
0.0
  9
$LIMMAX
 10
12.0
 20
9.0
  9
$ORTHOMODE
 70
     0
  9
$REGENMODE
 70
     1
  9
$FILLMODE
 70
     1
  9
$QTEXTMODE
 70
     0
  9
$MIRRTEXT
 70
     1
  9
$LTSCALE
 40
1.0
  9
$ATTMODE
 70
     1
  9
$TEXTSIZE
 40
0.2
  9
$TRACEWID
 40
0.05
  9
$TEXTSTYLE
  7
Standard
  9
$CLAYER
  8
0
  9
$CELTYPE
  6
ByLayer
  9
$CECOLOR
 62
   256
  9
$CELTSCALE
 40
1.0
  9
$DISPSILH
 70
     0
  9
$DIMSCALE
 40
1.0
  9
$DIMASZ
 40
0.18
  9
$DIMEXO
 40
0.0625
  9
$DIMDLI
 40
0.38
  9
$DIMRND
 40
0.0
  9
$DIMDLE
 40
0.0
  9
$DIMEXE
 40
0.18
  9
$DIMTP
 40
0.0
  9
$DIMTM
 40
0.0
  9
$DIMTXT
 40
0.18
  9
$DIMCEN
 40
0.09
  9
$DIMTSZ
 40
0.0
  9
$DIMTOL
 70
     0
  9
$DIMLIM
 70
     0
  9
$DIMTIH
 70
     1
  9
$DIMTOH
 70
     1
  9
$DIMSE1
 70
     0
  9
$DIMSE2
 70
     0
  9
$DIMTAD
 70
     0
  9
$DIMZIN
 70
     0
  9
$DIMBLK
  1

  9
$DIMASO
 70
     1
  9
$DIMSHO
 70
     1
  9
$DIMPOST
  1

  9
$DIMAPOST
  1

  9
$DIMALT
 70
     0
  9
$DIMALTD
 70
     2
  9
$DIMALTF
 40
25.4
  9
$DIMLFAC
 40
1.0
  9
$DIMTOFL
 70
     0
  9
$DIMTVP
 40
0.0
  9
$DIMTIX
 70
     0
  9
$DIMSOXD
 70
     0
  9
$DIMSAH
 70
     0
  9
$DIMBLK1
  1

  9
$DIMBLK2
  1

  9
$DIMSTYLE
  2
Standard
  9
$DIMCLRD
 70
     0
  9
$DIMCLRE
 70
     0
  9
$DIMCLRT
 70
     0
  9
$DIMTFAC
 40
1.0
  9
$DIMGAP
 40
0.09
  9
$DIMJUST
 70
     0
  9
$DIMSD1
 70
     0
  9
$DIMSD2
 70
     0
  9
$DIMTOLJ
 70
     1
  9
$DIMTZIN
 70
     0
  9
$DIMALTZ
 70
     0
  9
$DIMALTTZ
 70
     0
  9
$DIMUPT
 70
     0
  9
$DIMDEC
 70
     4
  9
$DIMTDEC
 70
     4
  9
$DIMALTU
 70
     2
  9
$DIMALTTD
 70
     2
  9
$DIMTXSTY
  7
Standard
  9
$DIMAUNIT
 70
     0
  9
$DIMADEC
 70
     0
  9
$DIMALTRND
 40
0.0
  9
$DIMAZIN
 70
     0
  9
$DIMDSEP
 70
    46
  9
$DIMATFIT
 70
     3
  9
$DIMFRAC
 70
     0
  9
$DIMLDRBLK
  1

  9
$DIMLUNIT
 70
     2
  9
$DIMLWD
 70
    -2
  9
$DIMLWE
 70
    -2
  9
$DIMTMOVE
 70
     0
  9
$LUNITS
 70
     2
  9
$LUPREC
 70
     4
  9
$SKETCHINC
 40
0.1
  9
$FILLETRAD
 40
0.5
  9
$AUNITS
 70
     0
  9
$AUPREC
 70
     0
  9
$MENU
  1
.
  9
$ELEVATION
 40
0.0
  9
$PELEVATION
 40
0.0
  9
$THICKNESS
 40
0.0
  9
$LIMCHECK
 70
     0
  9
$CHAMFERA
 40
0.5
  9
$CHAMFERB
 40
0.5
  9
$CHAMFERC
 40
1.0
  9
$CHAMFERD
 40
0.0
  9
$SKPOLY
 70
     0
  9
$TDCREATE
 40
2458208.624833102
  9
$TDUCREATE
 40
2458208.583166435
  9
$TDUPDATE
 40
2458208.624833114
  9
$TDUUPDATE
 40
2458208.583166447
  9
$TDINDWG
 40
0.0000000116
  9
$TDUSRTIMER
 40
0.0000000116
  9
$USRTIMER
 70
     1
  9
$ANGBASE
 50
0.0
  9
$ANGDIR
 70
     0
  9
$PDMODE
 70
     0
  9
$PDSIZE
 40
0.0
  9
$PLINEWID
 40
0.0
  9
$SPLFRAME
 70
     0
  9
$SPLINETYPE
 70
     6
  9
$SPLINESEGS
 70
     8
  9
$HANDSEED
  5
5F
  9
$SURFTAB1
 70
     6
  9
$SURFTAB2
 70
     6
  9
$SURFTYPE
 70
     6
  9
$SURFU
 70
     6
  9
$SURFV
 70
     6
  9
$UCSBASE
  2

  9
$UCSNAME
  2

  9
$UCSORG
 10
0.0
 20
0.0
 30
0.0
  9
$UCSXDIR
 10
1.0
 20
0.0
 30
0.0
  9
$UCSYDIR
 10
0.0
 20
1.0
 30
0.0
  9
$UCSORTHOREF
  2

  9
$UCSORTHOVIEW
 70
     0
  9
$UCSORGTOP
 10
0.0
 20
0.0
 30
0.0
  9
$UCSORGBOTTOM
 10
0.0
 20
0.0
 30
0.0
  9
$UCSORGLEFT
 10
0.0
 20
0.0
 30
0.0
  9
$UCSORGRIGHT
 10
0.0
 20
0.0
 30
0.0
  9
$UCSORGFRONT
 10
0.0
 20
0.0
 30
0.0
  9
$UCSORGBACK
 10
0.0
 20
0.0
 30
0.0
  9
$PUCSBASE
  2

  9
$PUCSNAME
  2

  9
$PUCSORG
 10
0.0
 20
0.0
 30
0.0
  9
$PUCSXDIR
 10
1.0
 20
0.0
 30
0.0
  9
$PUCSYDIR
 10
0.0
 20
1.0
 30
0.0
  9
$PUCSORTHOREF
  2

  9
$PUCSORTHOVIEW
 70
     0
  9
$PUCSORGTOP
 10
0.0
 20
0.0
 30
0.0
  9
$PUCSORGBOTTOM
 10
0.0
 20
0.0
 30
0.0
  9
$PUCSORGLEFT
 10
0.0
 20
0.0
 30
0.0
  9
$PUCSORGRIGHT
 10
0.0
 20
0.0
 30
0.0
  9
$PUCSORGFRONT
 10
0.0
 20
0.0
 30
0.0
  9
$PUCSORGBACK
 10
0.0
 20
0.0
 30
0.0
  9
$USERI1
 70
     0
  9
$USERI2
 70
     0
  9
$USERI3
 70
     0
  9
$USERI4
 70
     0
  9
$USERI5
 70
     0
  9
$USERR1
 40
0.0
  9
$USERR2
 40
0.0
  9
$USERR3
 40
0.0
  9
$USERR4
 40
0.0
  9
$USERR5
 40
0.0
  9
$WORLDVIEW
 70
     1
  9
$SHADEDGE
 70
     3
  9
$SHADEDIF
 70
    70
  9
$TILEMODE
 70
     1
  9
$MAXACTVP
 70
    64
  9
$PINSBASE
 10
0.0
 20
0.0
 30
0.0
  9
$PLIMCHECK
 70
     0
  9
$PEXTMIN
 10
1.000000000000000E+20
 20
1.000000000000000E+20
 30
1.000000000000000E+20
  9
$PEXTMAX
 10
-1.000000000000000E+20
 20
-1.000000000000000E+20
 30
-1.000000000000000E+20
  9
$PLIMMIN
 10
0.0
 20
0.0
  9
$PLIMMAX
 10
12.0
 20
9.0
  9
$UNITMODE
 70
     0
  9
$VISRETAIN
 70
     1
  9
$PLINEGEN
 70
     0
  9
$PSLTSCALE
 70
     1
  9
$TREEDEPTH
 70
  3020
  9
$CMLSTYLE
  2
Standard
  9
$CMLJUST
 70
     0
  9
$CMLSCALE
 40
1.0
  9
$PROXYGRAPHICS
 70
     1
  9
$MEASUREMENT
 70
     0
  9
$CELWEIGHT
370
    -1
  9
$ENDCAPS
280
     0
  9
$JOINSTYLE
280
     0
  9
$LWDISPLAY
290
     1
  9
$INSUNITS
 70
     1
  9
$HYPERLINKBASE
  1

  9
$STYLESHEET
  1

  9
$XEDIT
290
     1
  9
$CEPSNTYPE
380
     0
  9
$PSTYLEMODE
290
     1
  9
$FINGERPRINTGUID
  2
{25FEC073-7558-4FD9-B93C-C0B3A57C5175}
  9
$VERSIONGUID
  2
{FAEB1C32-E019-11D5-929B-00C0DF256EC4}
  9
$EXTNAMES
290
     1
  9
$PSVPSCALE
 40
0.0
  9
$OLESTARTUP
290
     0
  9
$SORTENTS
280
   127
  9
$INDEXCTL
280
     0
  9
$HIDETEXT
280
     1
  9
$XCLIPFRAME
290
     0
  9
$HALOGAP
280
     0
  9
$OBSCOLOR
 70
   257
  9
$OBSLTYPE
280
     0
  9
$INTERSECTIONDISPLAY
280
     0
  9
$INTERSECTIONCOLOR
 70
   257
  9
$DIMASSOC
280
     2
  9
$PROJECTNAME
  1

  0
ENDSEC
  0
SECTION
  2
CLASSES
  0
CLASS
  1
ACDBDICTIONARYWDFLT
  2
AcDbDictionaryWithDefault
  3
ObjectDBX Classes
 90
        0
 91
        3
280
     0
281
     0
  0
CLASS
  1
VISUALSTYLE
  2
AcDbVisualStyle
  3
ObjectDBX Classes
 90
     4095
 91
        3
280
     0
281
     0
  0
ENDSEC
  0
SECTION
  2
TABLES
  0
TABLE
  2
VPORT
  5
8
330
0
100
AcDbSymbolTable
 70
     1
  0
VPORT
  5
29
330
8
100
AcDbSymbolTableRecord
100
AcDbViewportTableRecord
  2
*Active
 70
     0
 10
0.0
 20
0.0
 11
1.0
 21
1.0
 12
0.0
 22
0.0
 13
0.0
 23
0.0
 14
0.5
 24
0.5
 15
0.5
 25
0.5
 16
0.0
 26
0.0
 36
1.0
 17
5.0
 27
-6.565517849392361
 37
0.0
 40
3.914048936631944
 41
2.554899073031275
 42
50.0
 43
0.0
 44
0.0
 50
0.0
 51
0.0
 71
     0
 72
   100
 73
     1
 74
     3
 75
     0
 76
     0
 77
     0
 78
     0
281
     0
 65
     1
110
0.0
120
0.0
130
0.0
111
1.0
121
0.0
131
0.0
112
0.0
122
1.0
132
0.0
 79
     0
146
0.0
  0
ENDTAB
  0
TABLE
  2
LTYPE
  5
5
330
0
100
AcDbSymbolTable
 70
     1
  0
LTYPE
  5
14
330
5
100
AcDbSymbolTableRecord
100
AcDbLinetypeTableRecord
  2
ByBlock
 70
     0
  3

 72
    65
 73
     0
 40
0.0
  0
LTYPE
  5
15
330
5
100
AcDbSymbolTableRecord
100
AcDbLinetypeTableRecord
  2
ByLayer
 70
     0
  3

 72
    65
 73
     0
 40
0.0
  0
LTYPE
  5
16
330
5
100
AcDbSymbolTableRecord
100
AcDbLinetypeTableRecord
  2
Continuous
 70
     0
  3
Solid line
 72
    65
 73
     0
 40
0.0
  0
ENDTAB
  0
TABLE
  2
LAYER
  5
2
330
0
100
AcDbSymbolTable
 70
     2
  0
LAYER
  5
10
330
2
100
AcDbSymbolTableRecord
100
AcDbLayerTableRecord
  2
0
 70
     0
 62
     7
  6
Continuous
370
    -3
390
F
  0
LAYER
  5
3B
330
2
100
AcDbSymbolTableRecord
100
AcDbLayerTableRecord
  2
Layer 1
 70
     0
 62
     7
  6
Continuous
370
    -3
390
F
  0
ENDTAB
  0
TABLE
  2
STYLE
  5
3
330
0
100
AcDbSymbolTable
 70
     1
  0
STYLE
  5
11
330
3
100
AcDbSymbolTableRecord
100
AcDbTextStyleTableRecord
  2
Standard
 70
     0
 40
0.0
 41
1.0
 50
0.0
 71
     0
 42
0.2
  3
txt
  4

  0
ENDTAB
  0
TABLE
  2
VIEW
  5
6
330
0
100
AcDbSymbolTable
 70
     0
  0
ENDTAB
  0
TABLE
  2
UCS
  5
7
330
0
100
AcDbSymbolTable
 70
     0
  0
ENDTAB
  0
TABLE
  2
APPID
  5
9
330
0
100
AcDbSymbolTable
 70
     1
  0
APPID
  5
12
330
9
100
AcDbSymbolTableRecord
100
AcDbRegAppTableRecord
  2
ACAD
 70
     0
  0
ENDTAB
  0
TABLE
  2
DIMSTYLE
  5
A
330
0
100
AcDbSymbolTable
 70
     1
100
AcDbDimStyleTable
  0
DIMSTYLE
105
27
330
A
100
AcDbSymbolTableRecord
100
AcDbDimStyleTableRecord
  2
Standard
 70
     0
340
11
  0
ENDTAB
  0
TABLE
  2
BLOCK_RECORD
  5
1
330
0
100
AcDbSymbolTable
 70
     1
  0
BLOCK_RECORD
  5
1F
330
1
100
AcDbSymbolTableRecord
100
AcDbBlockTableRecord
  2
*Model_Space
340
22
  0
BLOCK_RECORD
  5
1B
330
1
100
AcDbSymbolTableRecord
100
AcDbBlockTableRecord
  2
*Paper_Space
340
1E
  0
BLOCK_RECORD
  5
23
330
1
100
AcDbSymbolTableRecord
100
AcDbBlockTableRecord
  2
*Paper_Space0
340
26
  0
ENDTAB
  0
ENDSEC
  0
SECTION
  2
BLOCKS
  0
BLOCK
  5
20
330
1F
100
AcDbEntity
  8
0
100
AcDbBlockBegin
  2
*Model_Space
 70
     0
 71
     0
 10
0.0
 20
0.0
 30
0.0
  3
*Model_Space
  1

  0
ENDBLK
  5
21
330
1F
100
AcDbEntity
  8
0
100
AcDbBlockEnd
  0
BLOCK
  5
1C
330
1B
100
AcDbEntity
 67
     1
  8
0
100
AcDbBlockBegin
  2
*Paper_Space
 70
     0
 71
     0
 10
0.0
 20
0.0
 30
0.0
  3
*Paper_Space
  1

  0
ENDBLK
  5
1D
330
1B
100
AcDbEntity
 67
     1
  8
0
100
AcDbBlockEnd
  0
BLOCK
  5
24
330
23
100
AcDbEntity
  8
0
100
AcDbBlockBegin
  2
*Paper_Space0
 70
     0
 71
     0
 10
0.0
 20
0.0
 30
0.0
  3
*Paper_Space0
  1

  0
ENDBLK
  5
25
330
23
100
AcDbEntity
  8
0
100
AcDbBlockEnd
  0
ENDSEC
  0
SECTION
  2
ENTITIES
  0
POLYLINE
  5
3C
330
1F
100
AcDbEntity
  8
Layer 1
370
     0
100
AcDb2dPolyline
 66
     1
 10
0.0
 20
0.0
 30
0.0
  0
VERTEX
  5
3D
330
3C
100
AcDbEntity
  8
Layer 1
370
     0
100
AcDbVertex
100
AcDb2dVertex
 10
5.365044487847222
 20
-5.820855034722222
 30
0.0
  0
VERTEX
  5
3E
330
3C
100
AcDbEntity
  8
Layer 1
370
     0
100
AcDbVertex
100
AcDb2dVertex
 10
4.634908040364583
 20
-5.820855034722222
 30
0.0
  0
VERTEX
  5
3F
330
3C
100
AcDbEntity
  8
Layer 1
370
     0
100
AcDbVertex
100
AcDb2dVertex
 10
-0.0000067816840278
 20
-5.820855034722222
 30
0.0
  0
VERTEX
  5
40
330
3C
100
AcDbEntity
  8
Layer 1
370
     0
100
AcDbVertex
100
AcDb2dVertex
 10
0.69488525390625
 20
-6.565511067708333
 30
0.0
  0
VERTEX
  5
41
330
3C
100
AcDbEntity
  8
Layer 1
370
     0
100
AcDbVertex
100
AcDb2dVertex
 10
-0.0000067816840278
 20
-7.310167100694444
 30
0.0
  0
VERTEX
  5
42
330
3C
100
AcDbEntity
  8
Layer 1
370
     0
100
AcDbVertex
100
AcDb2dVertex
 10
4.634908040364583
 20
-7.310167100694444
 30
0.0
  0
VERTEX
  5
43
330
3C
100
AcDbEntity
  8
Layer 1
370
     0
100
AcDbVertex
100
AcDb2dVertex
 10
5.365044487847222
 20
-7.310167100694444
 30
0.0
  0
VERTEX
  5
44
330
3C
100
AcDbEntity
  8
Layer 1
370
     0
100
AcDbVertex
100
AcDb2dVertex
 10
10.0
 20
-7.310167100694444
 30
0.0
  0
VERTEX
  5
45
330
3C
100
AcDbEntity
  8
Layer 1
370
     0
100
AcDbVertex
100
AcDb2dVertex
 10
9.305094401041666
 20
-6.565511067708333
 30
0.0
  0
VERTEX
  5
46
330
3C
100
AcDbEntity
  8
Layer 1
370
     0
100
AcDbVertex
100
AcDb2dVertex
 10
10.0
 20
-5.820855034722222
 30
0.0
  0
VERTEX
  5
47
330
3C
100
AcDbEntity
  8
Layer 1
370
     0
100
AcDbVertex
100
AcDb2dVertex
 10
5.365044487847222
 20
-5.820855034722222
 30
0.0
  0
SEQEND
  5
48
330
3C
100
AcDbEntity
  8
Layer 1
370
     0
  0
HATCH
  5
49
330
1F
100
AcDbEntity
  8
Layer 1
 62
   250
420
  2301728
100
AcDbHatch
 10
0.0
 20
0.0
 30
0.0
210
0.0
220
0.0
230
1.0
  2
SOLID
 70
     1
 71
     0
 91
        1
 92
        1
 93
       10
 72
     1
 10
5.365044487847222
 20
-5.820855034722222
 11
4.634908040364583
 21
-5.820855034722222
 72
     1
 10
4.634908040364583
 20
-5.820855034722222
 11
-0.0000067816840277
 21
-5.820855034722222
 72
     1
 10
-0.0000067816840278
 20
-5.820855034722222
 11
0.69488525390625
 21
-6.565511067708333
 72
     1
 10
0.69488525390625
 20
-6.565511067708333
 11
-0.0000067816840278
 21
-7.310167100694444
 72
     1
 10
-0.0000067816840278
 20
-7.310167100694444
 11
4.634908040364583
 21
-7.310167100694444
 72
     1
 10
4.634908040364583
 20
-7.310167100694444
 11
5.365044487847222
 21
-7.310167100694444
 72
     1
 10
5.365044487847222
 20
-7.310167100694444
 11
10.0
 21
-7.310167100694444
 72
     1
 10
10.0
 20
-7.310167100694444
 11
9.305094401041666
 21
-6.565511067708333
 72
     1
 10
9.305094401041666
 20
-6.565511067708333
 11
10.0
 21
-5.820855034722222
 72
     1
 10
10.0
 20
-5.820855034722222
 11
5.365044487847222
 21
-5.820855034722222
 97
        0
 75
     2
 76
     1
 98
        0
  0
POLYLINE
  5
4A
330
1F
100
AcDbEntity
  8
Layer 1
370
     0
100
AcDb2dPolyline
 66
     1
 10
0.0
 20
0.0
 30
0.0
  0
VERTEX
  5
4B
330
4A
100
AcDbEntity
  8
Layer 1
370
     0
100
AcDbVertex
100
AcDb2dVertex
 10
11.84554036458333
 20
-0.871337890625
 30
0.0
  0
VERTEX
  5
4C
330
4A
100
AcDbEntity
  8
Layer 1
370
     0
100
AcDbVertex
100
AcDb2dVertex
 10
11.84554036458333
 20
-1.591417100694444
 30
0.0
  0
VERTEX
  5
4D
330
4A
100
AcDbEntity
  8
Layer 1
370
     0
100
AcDbVertex
100
AcDb2dVertex
 10
10.69444444444444
 20
-1.591417100694444
 30
0.0
  0
VERTEX
  5
4E
330
4A
100
AcDbEntity
  8
Layer 1
370
     0
100
AcDbVertex
100
AcDb2dVertex
 10
11.15603298611111
 20
-2.3115234375
 30
0.0
  0
VERTEX
  5
4F
330
4A
100
AcDbEntity
  8
Layer 1
370
     0
100
AcDbVertex
100
AcDb2dVertex
 10
10.69444444444444
 20
-3.042711046006944
 30
0.0
  0
VERTEX
  5
50
330
4A
100
AcDbEntity
  8
Layer 1
370
     0
100
AcDbVertex
100
AcDb2dVertex
 10
12.87071397569444
 20
-3.042711046006944
 30
0.0
  0
VERTEX
  5
51
330
4A
100
AcDbEntity
  8
Layer 1
370
     0
100
AcDbVertex
100
AcDb2dVertex
 10
12.87071397569444
 20
-2.3115234375
 30
0.0
  0
VERTEX
  5
52
330
4A
100
AcDbEntity
  8
Layer 1
370
     0
100
AcDbVertex
100
AcDb2dVertex
 10
18.51822916666666
 20
-2.3115234375
 30
0.0
  0
VERTEX
  5
53
330
4A
100
AcDbEntity
  8
Layer 1
370
     0
100
AcDbVertex
100
AcDb2dVertex
 10
18.51822916666666
 20
-3.042711046006944
 30
0.0
  0
VERTEX
  5
54
330
4A
100
AcDbEntity
  8
Layer 1
370
     0
100
AcDbVertex
100
AcDb2dVertex
 10
20.69444444444444
 20
-3.042711046006944
 30
0.0
  0
VERTEX
  5
55
330
4A
100
AcDbEntity
  8
Layer 1
370
     0
100
AcDbVertex
100
AcDb2dVertex
 10
20.23280164930555
 20
-2.3115234375
 30
0.0
  0
VERTEX
  5
56
330
4A
100
AcDbEntity
  8
Layer 1
370
     0
100
AcDbVertex
100
AcDb2dVertex
 10
20.69444444444444
 20
-1.591417100694444
 30
0.0
  0
VERTEX
  5
57
330
4A
100
AcDbEntity
  8
Layer 1
370
     0
100
AcDbVertex
100
AcDb2dVertex
 10
19.54337565104166
 20
-1.591417100694444
 30
0.0
  0
VERTEX
  5
58
330
4A
100
AcDbEntity
  8
Layer 1
370
     0
100
AcDbVertex
100
AcDb2dVertex
 10
19.54337565104166
 20
-0.871337890625
 30
0.0
  0
VERTEX
  5
59
330
4A
100
AcDbEntity
  8
Layer 1
370
     0
100
AcDbVertex
100
AcDb2dVertex
 10
11.84554036458333
 20
-0.871337890625
 30
0.0
  0
SEQEND
  5
5A
330
4A
100
AcDbEntity
  8
Layer 1
370
     0
  0
HATCH
  5
5B
330
1F
100
AcDbEntity
  8
Layer 1
 62
   250
420
  2301728
100
AcDbHatch
 10
0.0
 20
0.0
 30
0.0
210
0.0
220
0.0
230
1.0
  2
SOLID
 70
     1
 71
     0
 91
        1
 92
        1
 93
       14
 72
     1
 10
11.84554036458333
 20
-0.871337890625
 11
11.84554036458333
 21
-1.591417100694444
 72
     1
 10
11.84554036458333
 20
-1.591417100694444
 11
10.69444444444444
 21
-1.591417100694444
 72
     1
 10
10.69444444444444
 20
-1.591417100694444
 11
11.15603298611111
 21
-2.3115234375
 72
     1
 10
11.15603298611111
 20
-2.3115234375
 11
10.69444444444444
 21
-3.042711046006944
 72
     1
 10
10.69444444444444
 20
-3.042711046006944
 11
12.87071397569444
 21
-3.042711046006944
 72
     1
 10
12.87071397569444
 20
-3.042711046006944
 11
12.87071397569444
 21
-2.3115234375
 72
     1
 10
12.87071397569444
 20
-2.3115234375
 11
18.51822916666666
 21
-2.3115234375
 72
     1
 10
18.51822916666666
 20
-2.3115234375
 11
18.51822916666666
 21
-3.042711046006944
 72
     1
 10
18.51822916666666
 20
-3.042711046006944
 11
20.69444444444444
 21
-3.042711046006944
 72
     1
 10
20.69444444444444
 20
-3.042711046006944
 11
20.23280164930555
 21
-2.3115234375
 72
     1
 10
20.23280164930555
 20
-2.3115234375
 11
20.69444444444444
 21
-1.591417100694444
 72
     1
 10
20.69444444444444
 20
-1.591417100694444
 11
19.54337565104166
 21
-1.591417100694444
 72
     1
 10
19.54337565104166
 20
-1.591417100694444
 11
19.54337565104166
 21
-0.871337890625
 72
     1
 10
19.54337565104166
 20
-0.871337890625
 11
11.84554036458333
 21
-0.871337890625
 97
        0
 75
     2
 76
     1
 98
        0
  0
SPLINE
  5
5C
330
1F
100
AcDbEntity
  8
Layer 1
370
     0
100
AcDbSpline
210
0.0
220
0.0
230
1.0
 70
    11
 71
     3
 72
   137
 73
   133
 74
     0
 42
0.0000000001
 43
0.0000000001
 40
0.0
 40
0.0
 40
0.0
 40
0.0
 40
1.0
 40
1.0
 40
1.0
 40
2.0
 40
2.0
 40
2.0
 40
3.0
 40
3.0
 40
3.0
 40
4.0
 40
4.0
 40
4.0
 40
5.0
 40
5.0
 40
5.0
 40
6.0
 40
6.0
 40
6.0
 40
7.0
 40
7.0
 40
7.0
 40
8.0
 40
8.0
 40
8.0
 40
9.0
 40
9.0
 40
9.0
 40
10.0
 40
10.0
 40
10.0
 40
11.0
 40
11.0
 40
11.0
 40
12.0
 40
12.0
 40
12.0
 40
13.0
 40
13.0
 40
13.0
 40
14.0
 40
14.0
 40
14.0
 40
15.0
 40
15.0
 40
15.0
 40
16.0
 40
16.0
 40
16.0
 40
17.0
 40
17.0
 40
17.0
 40
18.0
 40
18.0
 40
18.0
 40
19.0
 40
19.0
 40
19.0
 40
20.0
 40
20.0
 40
20.0
 40
21.0
 40
21.0
 40
21.0
 40
22.0
 40
22.0
 40
22.0
 40
23.0
 40
23.0
 40
23.0
 40
24.0
 40
24.0
 40
24.0
 40
25.0
 40
25.0
 40
25.0
 40
26.0
 40
26.0
 40
26.0
 40
27.0
 40
27.0
 40
27.0
 40
28.0
 40
28.0
 40
28.0
 40
29.0
 40
29.0
 40
29.0
 40
30.0
 40
30.0
 40
30.0
 40
31.0
 40
31.0
 40
31.0
 40
32.0
 40
32.0
 40
32.0
 40
33.0
 40
33.0
 40
33.0
 40
34.0
 40
34.0
 40
34.0
 40
35.0
 40
35.0
 40
35.0
 40
36.0
 40
36.0
 40
36.0
 40
37.0
 40
37.0
 40
37.0
 40
38.0
 40
38.0
 40
38.0
 40
39.0
 40
39.0
 40
39.0
 40
40.0
 40
40.0
 40
40.0
 40
41.0
 40
41.0
 40
41.0
 40
42.0
 40
42.0
 40
42.0
 40
43.0
 40
43.0
 40
43.0
 40
44.0
 40
44.0
 40
44.0
 40
44.0
 10
10.0
 20
-2.225294325086805
 30
0.0
 10
9.954888237847221
 20
-2.204271104600694
 30
0.0
 10
9.909654405381945
 20
-2.183607313368055
 30
0.0
 10
9.8643798828125
 20
-2.163133409288194
 30
0.0
 10
9.84939236111111
 20
-2.156399197048611
 30
0.0
 10
9.834323459201388
 20
-2.149827745225694
 30
0.0
 10
9.819322374131945
 20
-2.143141004774305
 30
0.0
 10
9.789021809895832
 20
-2.12957763671875
 30
0.0
 10
9.758721245659721
 20
-2.116041395399305
 30
0.0
 10
9.728366427951388
 20
-2.102789984809028
 30
0.0
 10
9.710435655381945
 20
-2.094963921440972
 30
0.0
 10
9.6925048828125
 20
-2.087334526909722
 30
0.0
 10
9.674560546875
 20
-2.07958984375
 30
0.0
 10
9.646986219618055
 20
-2.067701551649305
 30
0.0
 10
9.619479709201388
 20
-2.055806477864583
 30
0.0
 10
9.591905381944445
 20
-2.044141981336805
 30
0.0
 10
9.57275390625
 20
-2.0360107421875
 30
0.0
 10
9.553534613715277
 20
-2.028123643663194
 30
0.0
 10
9.534315321180555
 20
-2.020107693142361
 30
0.0
 10
9.507948133680555
 20
-2.009107801649305
 30
0.0
 10
9.4815673828125
 20
-1.99810791015625
 30
0.0
 10
9.4552001953125
 20
-1.987270779079861
 30
0.0
 10
9.43520779079861
 20
-1.979139539930555
 30
0.0
 10
9.41518825954861
 20
-1.971150716145833
 30
0.0
 10
9.395250108506945
 20
-1.963100857204861
 30
0.0
 10
9.3695068359375
 20
-1.952711317274305
 30
0.0
 10
9.343804253472221
 20
-1.942409939236111
 30
0.0
 10
9.318047417534721
 20
-1.932217068142361
 30
0.0
 10
9.297526041666666
 20
-1.924085828993055
 30
0.0
 10
9.27700466579861
 20
-1.916178385416667
 30
0.0
 10
9.256442599826388
 20
-1.908155653211805
 30
0.0
 10
9.231214735243055
 20
-1.898383246527778
 30
0.0
 10
9.206041124131945
 20
-1.888576931423611
 30
0.0
 10
9.1807861328125
 20
-1.878940158420139
 30
0.0
 10
9.15966796875
 20
-1.870897081163194
 30
0.0
 10
9.138536241319445
 20
-1.863016764322917
 30
0.0
 10
9.117431640625
 20
-1.855075412326389
 30
0.0
 10
9.092814127604166
 20
-1.845831976996528
 30
0.0
 10
9.068155924479166
 20
-1.836669921875
 30
0.0
 10
9.043511284722221
 20
-1.827589246961805
 30
0.0
 10
9.021769205729166
 20
-1.819600423177083
 30
0.0
 10
9.000013563368055
 20
-1.811720106336805
 30
0.0
 10
8.978244357638888
 20
-1.803860134548611
 30
0.0
 10
8.954115125868055
 20
-1.795172797309028
 30
0.0
 10
8.930040147569445
 20
-1.786485460069444
 30
0.0
 10
8.9058837890625
 20
-1.777933756510417
 30
0.0
 10
8.895616319444445
 20
-1.774312337239583
 30
0.0
 10
8.885335286458332
 20
-1.770555284288194
 30
0.0
 10
8.87509494357639
 20
-1.766933865017361
 30
0.0
 10
8.924329969618055
 20
-1.553839789496528
 30
0.0
 10
8.973619249131945
 20
-1.340718587239583
 30
0.0
 10
9.022881401909721
 20
-1.127617730034722
 30
0.0
 10
6.393622504340278
 20
-0.2048882378472222
 30
0.0
 10
3.606391059027778
 20
-0.2048882378472222
 30
0.0
 10
0.9771050347222222
 20
-1.127617730034722
 30
0.0
 10
1.026380750868056
 20
-1.340718587239583
 30
0.0
 10
1.075670030381944
 20
-1.553839789496528
 30
0.0
 10
1.124932183159722
 20
-1.766933865017361
 30
0.0
 10
1.114786783854167
 20
-1.770501030815972
 30
0.0
 10
1.104668511284722
 20
-1.77423095703125
 30
0.0
 10
1.094523111979167
 20
-1.777825249565972
 30
0.0
 10
1.070081922743056
 20
-1.786458333333333
 30
0.0
 10
1.045681423611111
 20
-1.79522705078125
 30
0.0
 10
1.021280924479167
 20
-1.804029676649305
 30
0.0
 10
0.9997694227430555
 20
-1.811801486545139
 30
0.0
 10
0.9782850477430555
 20
-1.819573296440972
 30
0.0
 10
0.9568006727430555
 20
-1.827480740017361
 30
0.0
 10
0.9318983289930555
 20
-1.836642795138889
 30
0.0
 10
0.907009548611111
 20
-1.845913357204861
 30
0.0
 10
0.8821478949652777
 20
-1.855244954427083
 30
0.0
 10
0.861233181423611
 20
-1.86309814453125
 30
0.0
 10
0.8403184678819444
 20
-1.870897081163194
 30
0.0
 10
0.8194444444444444
 20
-1.878885904947917
 30
0.0
 10
0.7939995659722222
 20
-1.888576931423611
 30
0.0
 10
0.7685953776041666
 20
-1.898464626736111
 30
0.0
 10
0.7432047526041666
 20
-1.9083251953125
 30
0.0
 10
0.7228190104166666
 20
-1.916259765625
 30
0.0
 10
0.7024332682291666
 20
-1.924112955729167
 30
0.0
 10
0.6820610894097222
 20
-1.932162814670139
 30
0.0
 10
0.6561821831597222
 20
-1.942409939236111
 30
0.0
 10
0.6303304036458333
 20
-1.952799479166667
 30
0.0
 10
0.6044786241319444
 20
-1.963209364149305
 30
0.0
 10
0.584621853298611
 20
-1.971232096354167
 30
0.0
 10
0.5647515190972222
 20
-1.979166666666667
 30
0.0
 10
0.5449354383680556
 20
-1.98724365234375
 30
0.0
 10
0.5182969835069444
 20
-1.998162163628472
 30
0.0
 10
0.4917127821180555
 20
-2.009243435329861
 30
0.0
 10
0.4651421440972222
 20
-2.020331488715278
 30
0.0
 10
0.4461669921875
 20
-2.028238932291667
 30
0.0
 10
0.4271782769097222
 20
-2.036064995659722
 30
0.0
 10
0.4082573784722222
 20
-2.044087727864583
 30
0.0
 10
0.38037109375
 20
-2.055860731336805
 30
0.0
 10
0.3525526258680555
 20
-2.067864312065972
 30
0.0
 10
0.3247477213541666
 20
-2.079867892795139
 30
0.0
 10
0.3070746527777777
 20
-2.087531195746528
 30
0.0
 10
0.2894015842013889
 20
-2.095018174913194
 30
0.0
 10
0.2717149522569444
 20
-2.102762858072917
 30
0.0
 10
0.2411159939236111
 20
-2.116129557291667
 30
0.0
 10
0.2105712890625
 20
-2.129747178819444
 30
0.0
 10
0.1800672743055556
 20
-2.143391927083333
 30
0.0
 10
0.1652696397569444
 20
-2.149990505642361
 30
0.0
 10
0.1504313151041667
 20
-2.156480577256944
 30
0.0
 10
0.1356608072916667
 20
-2.163133409288194
 30
0.0
 10
0.0903727213541667
 20
-2.183573404947917
 30
0.0
 10
0.0451524522569444
 20
-2.204271104600694
 30
0.0
 10
0.0
 20
-2.225294325086805
 30
0.0
 10
0.2123480902777778
 20
-2.363308376736111
 30
0.0
 10
0.4196912977430555
 20
-2.507175021701389
 30
0.0
 10
0.6219211154513888
 20
-2.65655517578125
 30
0.0
 10
0.5363226996527778
 20
-2.929999457465278
 30
0.0
 10
0.4571533203125
 20
-3.204142252604167
 30
0.0
 10
0.3843994140625
 20
-3.478474934895833
 30
0.0
 10
1.031724717881944
 20
-3.17718505859375
 30
0.0
 10
1.693617078993055
 20
-2.941392686631944
 30
0.0
 10
2.363755967881944
 20
-2.771233452690972
 30
0.0
 10
2.326863606770833
 20
-2.550896538628472
 30
0.0
 10
2.289998372395833
 20
-2.330532497829861
 30
0.0
 10
2.253133138020833
 20
-2.11016845703125
 30
0.0
 10
4.065117730034722
 20
-1.650058322482639
 30
0.0
 10
5.934868706597222
 20
-1.650058322482639
 30
0.0
 10
7.746866861979166
 20
-2.11016845703125
 30
0.0
 10
7.709988064236111
 20
-2.330532497829861
 30
0.0
 10
7.673122829861111
 20
-2.550896538628472
 30
0.0
 10
7.636244032118055
 20
-2.771233452690972
 30
0.0
 10
8.30636935763889
 20
-2.941392686631944
 30
0.0
 10
8.968275282118055
 20
-3.17718505859375
 30
0.0
 10
9.6156005859375
 20
-3.478474934895833
 30
0.0
 10
9.5428466796875
 20
-3.204142252604167
 30
0.0
 10
9.463663736979166
 20
-2.929999457465278
 30
0.0
 10
9.378065321180555
 20
-2.65655517578125
 30
0.0
 10
9.580322265625
 20
-2.507175021701389
 30
0.0
 10
9.787679036458332
 20
-2.363308376736111
 30
0.0
 10
10.0
 20
-2.225294325086805
 30
0.0
  0
HATCH
  5
5D
330
1F
100
AcDbEntity
  8
Layer 1
 62
   250
420
  2301728
100
AcDbHatch
 10
0.0
 20
0.0
 30
0.0
210
0.0
220
0.0
230
1.0
  2
SOLID
 70
     1
 71
     0
 91
        1
 92
        1
 93
        2
 72
     4
 94
        3
 73
     0
 74
     0
 95
      137
 96
      133
 40
0.0
 40
0.0
 40
0.0
 40
0.0
 40
0.0138888888888889
 40
0.0138888888888889
 40
0.0138888888888889
 40
0.0277777777777778
 40
0.0277777777777778
 40
0.0277777777777778
 40
0.0416666666666667
 40
0.0416666666666667
 40
0.0416666666666667
 40
0.0555555555555556
 40
0.0555555555555556
 40
0.0555555555555556
 40
0.0694444444444444
 40
0.0694444444444444
 40
0.0694444444444444
 40
0.0833333333333333
 40
0.0833333333333333
 40
0.0833333333333333
 40
0.0972222222222222
 40
0.0972222222222222
 40
0.0972222222222222
 40
0.1111111111111111
 40
0.1111111111111111
 40
0.1111111111111111
 40
0.125
 40
0.125
 40
0.125
 40
0.1388888888888889
 40
0.1388888888888889
 40
0.1388888888888889
 40
0.1527777777777778
 40
0.1527777777777778
 40
0.1527777777777778
 40
0.1666666666666667
 40
0.1666666666666667
 40
0.1666666666666667
 40
0.1805555555555556
 40
0.1805555555555556
 40
0.1805555555555556
 40
0.1944444444444444
 40
0.1944444444444444
 40
0.1944444444444444
 40
0.2083333333333333
 40
0.2083333333333333
 40
0.2083333333333333
 40
0.2222222222222222
 40
0.2222222222222222
 40
0.2222222222222222
 40
0.2361111111111111
 40
0.2361111111111111
 40
0.2361111111111111
 40
0.25
 40
0.25
 40
0.25
 40
0.2638888888888889
 40
0.2638888888888889
 40
0.2638888888888889
 40
0.2777777777777778
 40
0.2777777777777778
 40
0.2777777777777778
 40
0.2916666666666666
 40
0.2916666666666666
 40
0.2916666666666666
 40
0.3055555555555555
 40
0.3055555555555555
 40
0.3055555555555555
 40
0.3194444444444444
 40
0.3194444444444444
 40
0.3194444444444444
 40
0.3333333333333333
 40
0.3333333333333333
 40
0.3333333333333333
 40
0.3472222222222222
 40
0.3472222222222222
 40
0.3472222222222222
 40
0.3611111111111111
 40
0.3611111111111111
 40
0.3611111111111111
 40
0.375
 40
0.375
 40
0.375
 40
0.3888888888888888
 40
0.3888888888888888
 40
0.3888888888888888
 40
0.4027777777777777
 40
0.4027777777777777
 40
0.4027777777777777
 40
0.4166666666666666
 40
0.4166666666666666
 40
0.4166666666666666
 40
0.4305555555555555
 40
0.4305555555555555
 40
0.4305555555555555
 40
0.4444444444444444
 40
0.4444444444444444
 40
0.4444444444444444
 40
0.4583333333333333
 40
0.4583333333333333
 40
0.4583333333333333
 40
0.4722222222222222
 40
0.4722222222222222
 40
0.4722222222222222
 40
0.4861111111111111
 40
0.4861111111111111
 40
0.4861111111111111
 40
0.5
 40
0.5
 40
0.5
 40
0.5138888888888888
 40
0.5138888888888888
 40
0.5138888888888888
 40
0.5277777777777778
 40
0.5277777777777778
 40
0.5277777777777778
 40
0.5416666666666666
 40
0.5416666666666666
 40
0.5416666666666666
 40
0.5555555555555556
 40
0.5555555555555556
 40
0.5555555555555556
 40
0.5694444444444444
 40
0.5694444444444444
 40
0.5694444444444444
 40
0.5833333333333333
 40
0.5833333333333333
 40
0.5833333333333333
 40
0.5972222222222222
 40
0.5972222222222222
 40
0.5972222222222222
 40
0.611111111111111
 40
0.611111111111111
 40
0.611111111111111
 40
0.611111111111111
 10
10.0
 20
-2.225294325086805
 10
9.954888237847221
 20
-2.204271104600694
 10
9.909654405381945
 20
-2.183607313368055
 10
9.8643798828125
 20
-2.163133409288194
 10
9.84939236111111
 20
-2.156399197048611
 10
9.834323459201388
 20
-2.149827745225694
 10
9.819322374131945
 20
-2.143141004774305
 10
9.789021809895832
 20
-2.12957763671875
 10
9.758721245659721
 20
-2.116041395399305
 10
9.728366427951388
 20
-2.102789984809028
 10
9.710435655381945
 20
-2.094963921440972
 10
9.6925048828125
 20
-2.087334526909722
 10
9.674560546875
 20
-2.07958984375
 10
9.646986219618055
 20
-2.067701551649305
 10
9.619479709201388
 20
-2.055806477864583
 10
9.591905381944445
 20
-2.044141981336805
 10
9.57275390625
 20
-2.0360107421875
 10
9.553534613715277
 20
-2.028123643663194
 10
9.534315321180555
 20
-2.020107693142361
 10
9.507948133680555
 20
-2.009107801649305
 10
9.4815673828125
 20
-1.99810791015625
 10
9.4552001953125
 20
-1.987270779079861
 10
9.43520779079861
 20
-1.979139539930555
 10
9.41518825954861
 20
-1.971150716145833
 10
9.395250108506945
 20
-1.963100857204861
 10
9.3695068359375
 20
-1.952711317274305
 10
9.343804253472221
 20
-1.942409939236111
 10
9.318047417534721
 20
-1.932217068142361
 10
9.297526041666666
 20
-1.924085828993055
 10
9.27700466579861
 20
-1.916178385416667
 10
9.256442599826388
 20
-1.908155653211805
 10
9.231214735243055
 20
-1.898383246527778
 10
9.206041124131945
 20
-1.888576931423611
 10
9.1807861328125
 20
-1.878940158420139
 10
9.15966796875
 20
-1.870897081163194
 10
9.138536241319445
 20
-1.863016764322917
 10
9.117431640625
 20
-1.855075412326389
 10
9.092814127604166
 20
-1.845831976996528
 10
9.068155924479166
 20
-1.836669921875
 10
9.043511284722221
 20
-1.827589246961805
 10
9.021769205729166
 20
-1.819600423177083
 10
9.000013563368055
 20
-1.811720106336805
 10
8.978244357638888
 20
-1.803860134548611
 10
8.954115125868055
 20
-1.795172797309028
 10
8.930040147569445
 20
-1.786485460069444
 10
8.9058837890625
 20
-1.777933756510417
 10
8.895616319444445
 20
-1.774312337239583
 10
8.885335286458332
 20
-1.770555284288194
 10
8.87509494357639
 20
-1.766933865017361
 10
8.924329969618055
 20
-1.553839789496528
 10
8.973619249131945
 20
-1.340718587239583
 10
9.022881401909721
 20
-1.127617730034722
 10
6.393622504340278
 20
-0.2048882378472222
 10
3.606391059027778
 20
-0.2048882378472222
 10
0.9771050347222222
 20
-1.127617730034722
 10
1.026380750868056
 20
-1.340718587239583
 10
1.075670030381944
 20
-1.553839789496528
 10
1.124932183159722
 20
-1.766933865017361
 10
1.114786783854167
 20
-1.770501030815972
 10
1.104668511284722
 20
-1.77423095703125
 10
1.094523111979167
 20
-1.777825249565972
 10
1.070081922743056
 20
-1.786458333333333
 10
1.045681423611111
 20
-1.79522705078125
 10
1.021280924479167
 20
-1.804029676649305
 10
0.9997694227430555
 20
-1.811801486545139
 10
0.9782850477430555
 20
-1.819573296440972
 10
0.9568006727430555
 20
-1.827480740017361
 10
0.9318983289930555
 20
-1.836642795138889
 10
0.907009548611111
 20
-1.845913357204861
 10
0.8821478949652777
 20
-1.855244954427083
 10
0.861233181423611
 20
-1.86309814453125
 10
0.8403184678819444
 20
-1.870897081163194
 10
0.8194444444444444
 20
-1.878885904947917
 10
0.7939995659722222
 20
-1.888576931423611
 10
0.7685953776041666
 20
-1.898464626736111
 10
0.7432047526041666
 20
-1.9083251953125
 10
0.7228190104166666
 20
-1.916259765625
 10
0.7024332682291666
 20
-1.924112955729167
 10
0.6820610894097222
 20
-1.932162814670139
 10
0.6561821831597222
 20
-1.942409939236111
 10
0.6303304036458333
 20
-1.952799479166667
 10
0.6044786241319444
 20
-1.963209364149305
 10
0.584621853298611
 20
-1.971232096354167
 10
0.5647515190972222
 20
-1.979166666666667
 10
0.5449354383680556
 20
-1.98724365234375
 10
0.5182969835069444
 20
-1.998162163628472
 10
0.4917127821180555
 20
-2.009243435329861
 10
0.4651421440972222
 20
-2.020331488715278
 10
0.4461669921875
 20
-2.028238932291667
 10
0.4271782769097222
 20
-2.036064995659722
 10
0.4082573784722222
 20
-2.044087727864583
 10
0.38037109375
 20
-2.055860731336805
 10
0.3525526258680555
 20
-2.067864312065972
 10
0.3247477213541666
 20
-2.079867892795139
 10
0.3070746527777777
 20
-2.087531195746528
 10
0.2894015842013889
 20
-2.095018174913194
 10
0.2717149522569444
 20
-2.102762858072917
 10
0.2411159939236111
 20
-2.116129557291667
 10
0.2105712890625
 20
-2.129747178819444
 10
0.1800672743055556
 20
-2.143391927083333
 10
0.1652696397569444
 20
-2.149990505642361
 10
0.1504313151041667
 20
-2.156480577256944
 10
0.1356608072916667
 20
-2.163133409288194
 10
0.0903727213541667
 20
-2.183573404947917
 10
0.0451524522569444
 20
-2.204271104600694
 10
0.0
 20
-2.225294325086805
 10
0.2123480902777778
 20
-2.363308376736111
 10
0.4196912977430555
 20
-2.507175021701389
 10
0.6219211154513888
 20
-2.65655517578125
 10
0.5363226996527778
 20
-2.929999457465278
 10
0.4571533203125
 20
-3.204142252604167
 10
0.3843994140625
 20
-3.478474934895833
 10
1.031724717881944
 20
-3.17718505859375
 10
1.693617078993055
 20
-2.941392686631944
 10
2.363755967881944
 20
-2.771233452690972
 10
2.326863606770833
 20
-2.550896538628472
 10
2.289998372395833
 20
-2.330532497829861
 10
2.253133138020833
 20
-2.11016845703125
 10
4.065117730034722
 20
-1.650058322482639
 10
5.934868706597222
 20
-1.650058322482639
 10
7.746866861979166
 20
-2.11016845703125
 10
7.709988064236111
 20
-2.330532497829861
 10
7.673122829861111
 20
-2.550896538628472
 10
7.636244032118055
 20
-2.771233452690972
 10
8.30636935763889
 20
-2.941392686631944
 10
8.968275282118055
 20
-3.17718505859375
 10
9.6156005859375
 20
-3.478474934895833
 10
9.5428466796875
 20
-3.204142252604167
 10
9.463663736979166
 20
-2.929999457465278
 10
9.378065321180555
 20
-2.65655517578125
 10
9.580322265625
 20
-2.507175021701389
 10
9.787679036458332
 20
-2.363308376736111
 10
10.0
 20
-2.225294325086805
 72
     1
 10
10.0
 20
-2.225294325086805
 11
10.0
 21
-2.225294325086805
 97
        0
 75
     2
 76
     1
 98
        0
  0
ENDSEC
  0
SECTION
  2
OBJECTS
  0
DICTIONARY
  5
C
330
0
100
AcDbDictionary
281
     1
  3
ACAD_GROUP
350
D
  3
ACAD_LAYOUT
350
1A
  3
ACAD_MLINESTYLE
350
17
  3
ACAD_PLOTSETTINGS
350
19
  3
ACAD_PLOTSTYLENAME
350
E
  3
ACAD_TABLESTYLE
350
5E
  3
ACAD_VISUALSTYLE
350
2A
  0
DICTIONARY
  5
D
102
{ACAD_REACTORS
330
C
102
}
330
C
100
AcDbDictionary
281
     1
  0
DICTIONARY
  5
1A
102
{ACAD_REACTORS
330
C
102
}
330
C
100
AcDbDictionary
281
     1
  3
Layout1
350
1E
  3
Layout2
350
26
  3
Model
350
22
  0
DICTIONARY
  5
17
102
{ACAD_REACTORS
330
C
102
}
330
C
100
AcDbDictionary
281
     1
  3
Standard
350
18
  0
DICTIONARY
  5
19
102
{ACAD_REACTORS
330
C
102
}
330
C
100
AcDbDictionary
281
     1
  0
ACDBDICTIONARYWDFLT
  5
E
102
{ACAD_REACTORS
330
C
102
}
330
C
100
AcDbDictionary
281
     1
  3
Normal
350
F
100
AcDbDictionaryWithDefault
340
F
  0
DICTIONARY
  5
5E
102
{ACAD_REACTORS
330
C
102
}
330
C
100
AcDbDictionary
281
     1
  0
DICTIONARY
  5
2A
102
{ACAD_REACTORS
330
C
102
}
330
C
100
AcDbDictionary
281
     1
  3
2dWireframe
350
2F
  3
3D Hidden
350
31
  3
3dWireframe
350
30
  3
Basic
350
32
  3
Brighten
350
36
  3
ColorChange
350
3A
  3
Conceptual
350
34
  3
Dim
350
35
  3
Facepattern
350
39
  3
Flat
350
2B
  3
FlatWithEdges
350
2C
  3
Gouraud
350
2D
  3
GouraudWithEdges
350
2E
  3
Linepattern
350
38
  3
Realistic
350
33
  3
Thicken
350
37
  0
LAYOUT
  5
1E
102
{ACAD_REACTORS
330
1A
102
}
330
1A
100
AcDbPlotSettings
  1

  2
none_device
  4

  6

 40
0.0
 41
0.0
 42
0.0
 43
0.0
 44
0.0
 45
0.0
 46
0.0
 47
0.0
 48
0.0
 49
0.0
140
0.0
141
0.0
142
1.0
143
1.0
 70
   688
 72
     0
 73
     0
 74
     5
  7

 75
    16
 76
     0
 77
     2
 78
   300
147
1.0
148
0.0
149
0.0
100
AcDbLayout
  1
Layout1
 70
     1
 71
     1
 10
0.0
 20
0.0
 11
12.0
 21
9.0
 12
0.0
 22
0.0
 32
0.0
 14
1.000000000000000E+20
 24
1.000000000000000E+20
 34
1.000000000000000E+20
 15
-1.000000000000000E+20
 25
-1.000000000000000E+20
 35
-1.000000000000000E+20
146
0.0
 13
0.0
 23
0.0
 33
0.0
 16
1.0
 26
0.0
 36
0.0
 17
0.0
 27
1.0
 37
0.0
 76
     0
330
1B
  0
LAYOUT
  5
26
102
{ACAD_REACTORS
330
1A
102
}
330
1A
100
AcDbPlotSettings
  1

  2
none_device
  4

  6

 40
0.0
 41
0.0
 42
0.0
 43
0.0
 44
0.0
 45
0.0
 46
0.0
 47
0.0
 48
0.0
 49
0.0
140
0.0
141
0.0
142
1.0
143
1.0
 70
   688
 72
     0
 73
     0
 74
     5
  7

 75
    16
 76
     0
 77
     2
 78
   300
147
1.0
148
0.0
149
0.0
100
AcDbLayout
  1
Layout2
 70
     1
 71
     2
 10
0.0
 20
0.0
 11
0.0
 21
0.0
 12
0.0
 22
0.0
 32
0.0
 14
0.0
 24
0.0
 34
0.0
 15
0.0
 25
0.0
 35
0.0
146
0.0
 13
0.0
 23
0.0
 33
0.0
 16
1.0
 26
0.0
 36
0.0
 17
0.0
 27
1.0
 37
0.0
 76
     0
330
23
  0
LAYOUT
  5
22
102
{ACAD_REACTORS
330
1A
102
}
330
1A
100
AcDbPlotSettings
  1

  2
none_device
  4

  6

 40
0.0
 41
0.0
 42
0.0
 43
0.0
 44
0.0
 45
0.0
 46
0.0
 47
0.0
 48
0.0
 49
0.0
140
0.0
141
0.0
142
1.0
143
1.0
 70
  1712
 72
     0
 73
     0
 74
     0
  7

 75
     0
 76
     0
 77
     2
 78
   300
147
1.0
148
0.0
149
0.0
100
AcDbLayout
  1
Model
 70
     1
 71
     0
 10
0.0
 20
0.0
 11
12.0
 21
9.0
 12
0.0
 22
0.0
 32
0.0
 14
1.000000000000000E+20
 24
1.000000000000000E+20
 34
1.000000000000000E+20
 15
-1.000000000000000E+20
 25
-1.000000000000000E+20
 35
-1.000000000000000E+20
146
0.0
 13
0.0
 23
0.0
 33
0.0
 16
1.0
 26
0.0
 36
0.0
 17
0.0
 27
1.0
 37
0.0
 76
     0
330
1F
331
29
  0
MLINESTYLE
  5
18
102
{ACAD_REACTORS
330
17
102
}
330
17
100
AcDbMlineStyle
  2
Standard
 70
     0
  3

 62
   256
 51
90.0
 52
90.0
 71
     2
 49
0.5
 62
   256
  6
BYLAYER
 49
-0.5
 62
   256
  6
BYLAYER
  0
ACDBPLACEHOLDER
  5
F
102
{ACAD_REACTORS
330
E
102
}
330
E
  0
VISUALSTYLE
  5
2F
102
{ACAD_REACTORS
330
2A
102
}
330
2A
100
AcDbVisualStyle
  2
2dWireframe
 70
     4
 71
     0
 72
     2
 73
     0
 90
        0
 40
-0.6
 41
-30.0
 62
     5
 63
     7
421
 16777215
 74
     1
 91
        4
 64
     7
 65
   257
 75
     1
175
     1
 42
1.0
 92
        0
 66
   257
 43
1.0
 76
     1
 77
     6
 78
     2
 67
     7
 79
     5
170
     0
171
     0
290
     0
174
     0
 93
        1
 44
0.0
173
     0
291
     0
 45
0.0
1001
ACAD
1000
AcDbSavedByObjectVersion
1070
     0
  0
VISUALSTYLE
  5
31
102
{ACAD_REACTORS
330
2A
102
}
330
2A
100
AcDbVisualStyle
  2
3D Hidden
 70
     6
 71
     1
 72
     2
 73
     2
 90
        0
 40
-0.6
 41
-30.0
 62
     5
 63
     7
421
 16777215
 74
     2
 91
        2
 64
     7
 65
   257
 75
     2
175
     1
 42
40.0
 92
        0
 66
   257
 43
1.0
 76
     1
 77
     6
 78
     2
 67
     7
 79
     3
170
     0
171
     0
290
     0
174
     0
 93
        1
 44
0.0
173
     0
291
     0
 45
0.0
1001
ACAD
1000
AcDbSavedByObjectVersion
1070
     0
  0
VISUALSTYLE
  5
30
102
{ACAD_REACTORS
330
2A
102
}
330
2A
100
AcDbVisualStyle
  2
3dWireframe
 70
     5
 71
     0
 72
     2
 73
     0
 90
        0
 40
-0.6
 41
-30.0
 62
     5
 63
     7
421
 16777215
 74
     1
 91
        4
 64
     7
 65
   257
 75
     1
175
     1
 42
1.0
 92
        0
 66
   257
 43
1.0
 76
     1
 77
     6
 78
     2
 67
     7
 79
     5
170
     0
171
     0
290
     0
174
     0
 93
        1
 44
0.0
173
     0
291
     0
 45
0.0
1001
ACAD
1000
AcDbSavedByObjectVersion
1070
     0
  0
VISUALSTYLE
  5
32
102
{ACAD_REACTORS
330
2A
102
}
330
2A
100
AcDbVisualStyle
  2
Basic
 70
     7
 71
     1
 72
     0
 73
     1
 90
        0
 40
-0.6
 41
-30.0
 62
     5
 63
     7
421
 16777215
 74
     0
 91
        4
 64
     7
 65
   257
 75
     1
175
     1
 42
1.0
 92
        8
 66
     7
 43
1.0
 76
     1
 77
     6
 78
     2
 67
     7
 79
     5
170
     0
171
     0
290
     0
174
     0
 93
        1
 44
0.0
173
     0
291
     1
 45
0.0
1001
ACAD
1000
AcDbSavedByObjectVersion
1070
     0
  0
VISUALSTYLE
  5
36
102
{ACAD_REACTORS
330
2A
102
}
330
2A
100
AcDbVisualStyle
  2
Brighten
 70
    12
 71
     2
 72
     2
 73
     0
 90
        0
 40
-0.6
 41
-30.0
 62
     5
 63
     7
421
 16777215
 74
     1
 91
        4
 64
     7
 65
   257
 75
     1
175
     1
 42
1.0
 92
        8
 66
     7
 43
1.0
 76
     1
 77
     6
 78
     2
 67
     7
 79
     5
170
     0
171
     0
290
     0
174
     0
 93
        1
 44
50.0
173
     0
291
     1
 45
0.0
1001
ACAD
1000
AcDbSavedByObjectVersion
1070
     0
  0
VISUALSTYLE
  5
3A
102
{ACAD_REACTORS
330
2A
102
}
330
2A
100
AcDbVisualStyle
  2
ColorChange
 70
    16
 71
     2
 72
     2
 73
     3
 90
        0
 40
-0.6
 41
-30.0
 62
     5
 63
     8
421
  8421504
 74
     1
 91
        4
 64
     7
 65
   257
 75
     1
175
     1
 42
1.0
 92
        8
 66
     8
424
  8421504
 43
1.0
 76
     1
 77
     6
 78
     2
 67
     7
 79
     5
170
     0
171
     0
290
     0
174
     0
 93
        1
 44
0.0
173
     0
291
     1
 45
0.0
1001
ACAD
1000
AcDbSavedByObjectVersion
1070
     0
  0
VISUALSTYLE
  5
34
102
{ACAD_REACTORS
330
2A
102
}
330
2A
100
AcDbVisualStyle
  2
Conceptual
 70
     9
 71
     3
 72
     2
 73
     0
 90
        0
 40
-0.6
 41
-30.0
 62
     5
 63
     7
421
 16777215
 74
     2
 91
        2
 64
     7
 65
   257
 75
     1
175
     1
 42
40.0
 92
        8
 66
     7
 43
1.0
 76
     1
 77
     6
 78
     2
 67
     7
 79
     3
170
     0
171
     0
290
     0
174
     0
 93
        1
 44
0.0
173
     0
291
     0
 45
0.0
1001
ACAD
1000
AcDbSavedByObjectVersion
1070
     0
  0
VISUALSTYLE
  5
35
102
{ACAD_REACTORS
330
2A
102
}
330
2A
100
AcDbVisualStyle
  2
Dim
 70
    11
 71
     2
 72
     2
 73
     0
 90
        0
 40
-0.6
 41
-30.0
 62
     5
 63
     7
421
 16777215
 74
     1
 91
        4
 64
     7
 65
   257
 75
     1
175
     1
 42
1.0
 92
        8
 66
     7
 43
1.0
 76
     1
 77
     6
 78
     2
 67
     7
 79
     5
170
     0
171
     0
290
     0
174
     0
 93
        1
 44
-50.0
173
     0
291
     1
 45
0.0
1001
ACAD
1000
AcDbSavedByObjectVersion
1070
     0
  0
VISUALSTYLE
  5
39
102
{ACAD_REACTORS
330
2A
102
}
330
2A
100
AcDbVisualStyle
  2
Facepattern
 70
    15
 71
     2
 72
     2
 73
     0
 90
        0
 40
-0.6
 41
-30.0
 62
     5
 63
     7
421
 16777215
 74
     1
 91
        4
 64
     7
 65
   257
 75
     1
175
     1
 42
1.0
 92
        8
 66
     7
 43
1.0
 76
     1
 77
     6
 78
     2
 67
     7
 79
     5
170
     0
171
     0
290
     0
174
     0
 93
        1
 44
0.0
173
     0
291
     1
 45
0.0
1001
ACAD
1000
AcDbSavedByObjectVersion
1070
     0
  0
VISUALSTYLE
  5
2B
102
{ACAD_REACTORS
330
2A
102
}
330
2A
100
AcDbVisualStyle
  2
Flat
 70
     0
 71
     2
 72
     1
 73
     1
 90
        2
 40
-0.6
 41
30.0
 62
     5
 63
     7
421
 16777215
 74
     0
 91
        4
 64
     7
 65
   257
 75
     1
175
     1
 42
1.0
 92
        8
 66
     7
 43
1.0
 76
     1
 77
     6
 78
     2
 67
     7
 79
     5
170
     0
171
     0
290
     0
174
     0
 93
       13
 44
0.0
173
     0
291
     1
 45
0.0
1001
ACAD
1000
AcDbSavedByObjectVersion
1070
     0
  0
VISUALSTYLE
  5
2C
102
{ACAD_REACTORS
330
2A
102
}
330
2A
100
AcDbVisualStyle
  2
FlatWithEdges
 70
     1
 71
     2
 72
     1
 73
     1
 90
        2
 40
-0.6
 41
30.0
 62
     5
 63
     7
421
 16777215
 74
     1
 91
        4
 64
     7
 65
   257
 75
     1
175
     1
 42
1.0
 92
        0
 66
   257
 43
1.0
 76
     1
 77
     6
 78
     2
 67
     7
 79
     5
170
     0
171
     0
290
     0
174
     0
 93
       13
 44
0.0
173
     0
291
     1
 45
0.0
1001
ACAD
1000
AcDbSavedByObjectVersion
1070
     0
  0
VISUALSTYLE
  5
2D
102
{ACAD_REACTORS
330
2A
102
}
330
2A
100
AcDbVisualStyle
  2
Gouraud
 70
     2
 71
     2
 72
     2
 73
     1
 90
        2
 40
-0.6
 41
30.0
 62
     5
 63
     7
421
 16777215
 74
     0
 91
        4
 64
     7
 65
   257
 75
     1
175
     1
 42
1.0
 92
        0
 66
     7
 43
1.0
 76
     1
 77
     6
 78
     2
 67
     7
 79
     5
170
     0
171
     0
290
     0
174
     0
 93
       13
 44
0.0
173
     0
291
     1
 45
0.0
1001
ACAD
1000
AcDbSavedByObjectVersion
1070
     0
  0
VISUALSTYLE
  5
2E
102
{ACAD_REACTORS
330
2A
102
}
330
2A
100
AcDbVisualStyle
  2
GouraudWithEdges
 70
     3
 71
     2
 72
     2
 73
     1
 90
        2
 40
-0.6
 41
30.0
 62
     5
 63
     7
421
 16777215
 74
     1
 91
        4
 64
     7
 65
   257
 75
     1
175
     1
 42
1.0
 92
        0
 66
   257
 43
1.0
 76
     1
 77
     6
 78
     2
 67
     7
 79
     5
170
     0
171
     0
290
     0
174
     0
 93
       13
 44
0.0
173
     0
291
     1
 45
0.0
1001
ACAD
1000
AcDbSavedByObjectVersion
1070
     0
  0
VISUALSTYLE
  5
38
102
{ACAD_REACTORS
330
2A
102
}
330
2A
100
AcDbVisualStyle
  2
Linepattern
 70
    14
 71
     2
 72
     2
 73
     0
 90
        0
 40
-0.6
 41
-30.0
 62
     5
 63
     7
421
 16777215
 74
     1
 91
        4
 64
     7
 65
   257
 75
     7
175
     7
 42
1.0
 92
        8
 66
     7
 43
1.0
 76
     1
 77
     6
 78
     2
 67
     7
 79
     5
170
     0
171
     0
290
     0
174
     0
 93
        1
 44
0.0
173
     0
291
     1
 45
0.0
1001
ACAD
1000
AcDbSavedByObjectVersion
1070
     0
  0
VISUALSTYLE
  5
33
102
{ACAD_REACTORS
330
2A
102
}
330
2A
100
AcDbVisualStyle
  2
Realistic
 70
     8
 71
     2
 72
     2
 73
     0
 90
        0
 40
-0.6
 41
-30.0
 62
     5
 63
     7
421
 16777215
 74
     1
 91
        0
 64
     7
 65
   257
 75
     1
175
     1
 42
1.0
 92
        8
 66
     8
424
  7895160
 43
1.0
 76
     1
 77
     6
 78
     2
 67
     7
 79
     5
170
     0
171
     0
290
     0
174
     0
 93
       13
 44
0.0
173
     0
291
     0
 45
0.0
1001
ACAD
1000
AcDbSavedByObjectVersion
1070
     0
  0
VISUALSTYLE
  5
37
102
{ACAD_REACTORS
330
2A
102
}
330
2A
100
AcDbVisualStyle
  2
Thicken
 70
    13
 71
     2
 72
     2
 73
     0
 90
        0
 40
-0.6
 41
-30.0
 62
     5
 63
     7
421
 16777215
 74
     1
 91
        4
 64
     7
 65
   257
 75
     1
175
     1
 42
1.0
 92
       12
 66
     7
 43
1.0
 76
     1
 77
     6
 78
     2
 67
     7
 79
     5
170
     0
171
     0
290
     0
174
     0
 93
        1
 44
0.0
173
     0
291
     1
 45
0.0
1001
ACAD
1000
AcDbSavedByObjectVersion
1070
     0
  0
ENDSEC
  0
EOF
